<svg xmlns="http://www.w3.org/2000/svg" xmlns:xlink="http://www.w3.org/1999/xlink" version="1.1" x="0px" y="0px" viewBox="0 0 100 125" style="enable-background:new 0 0 100 100;" xml:space="preserve"><g><g><path d="M48.049,34.971h-5.13c-0.708,0-1.282-0.573-1.282-1.282s0.575-1.282,1.282-1.282h5.13c0.708,0,1.282,0.573,1.282,1.282    S48.757,34.971,48.049,34.971z"/></g><g><path style="" d="M71.133,40.101H45.485c-0.708,0-1.282-0.573-1.282-1.282s0.575-1.282,1.282-1.282h25.649    c0.708,0,1.282,0.573,1.282,1.282S71.841,40.101,71.133,40.101z" fill="#231F20"/></g><g><path style="" d="M69.851,45.231H41.637c-0.708,0-1.282-0.573-1.282-1.282s0.575-1.282,1.282-1.282h28.214    c0.708,0,1.282,0.573,1.282,1.282S70.559,45.231,69.851,45.231z" fill="#231F20"/></g><g><path style="" d="M71.133,50.361H41.637c-0.708,0-1.282-0.573-1.282-1.282c0-0.709,0.575-1.282,1.282-1.282h29.496    c0.708,0,1.282,0.573,1.282,1.282C72.416,49.787,71.841,50.361,71.133,50.361z" fill="#231F20"/></g><g><path style="" d="M68.568,55.49H41.637c-0.708,0-1.282-0.573-1.282-1.282c0-0.709,0.575-1.282,1.282-1.282h26.931    c0.708,0,1.282,0.573,1.282,1.282C69.851,54.917,69.276,55.49,68.568,55.49z" fill="#231F20"/></g><path style="" d="M88.536,36.722l-9.76-0.071l0.021-2.871l6.868,0.05v-4.626c0-1.534-1.248-2.781-2.781-2.781v-2.871   c3.116,0,5.653,2.535,5.653,5.653V36.722z" fill="#231F20"/><path style="" d="M72.685,69.519c-1.558,0-2.473-0.632-2.965-1.162c-1.069-1.15-0.991-2.661-0.979-2.83   c-0.004-1.429-1.251-2.676-2.785-2.676v-2.871c3.116,0,5.653,2.536,5.653,5.653c-0.006,0.196,0.026,0.576,0.222,0.778   c0.19,0.198,0.57,0.238,0.855,0.238V69.519z" fill="#231F20"/><path style="" d="M75.047,69.49H60.333v-3.858c0-1.011,0.266-1.96,0.732-2.781H31.951V29.204   c0-3.116,2.536-5.653,5.653-5.653h45.878v2.871c-1.534,0-2.781,1.248-2.781,2.781v34.634C80.7,66.954,78.164,69.49,75.047,69.49z    M63.204,66.619h11.843c1.534,0,2.781-1.248,2.781-2.781V29.204c0-1.01,0.266-1.96,0.732-2.781H37.604   c-1.534,0-2.781,1.248-2.781,2.781v30.776h31.163v2.871c-1.534,0-2.781,1.248-2.781,2.781V66.619z" fill="#231F20"/><path style="" d="M57.551,80.077H13.109v-2.871c1.534,0,2.781-1.248,2.781-2.781v-8.793   c0-3.116,2.536-5.653,5.653-5.653h44.442v2.871c-1.534,0-2.781,1.248-2.781,2.781v8.793C63.204,77.541,60.668,80.077,57.551,80.077   z M18.029,77.206h39.522c1.534,0,2.781-1.248,2.781-2.781v-8.793c0-1.011,0.266-1.96,0.732-2.781H21.543   c-1.534,0-2.781,1.248-2.781,2.781v8.793C18.762,75.436,18.495,76.385,18.029,77.206z" fill="#231F20"/></g><text x="0" y="115" fill="#000000" font-size="5px" font-weight="bold" font-family="'Helvetica Neue', Helvetica, Arial-Unicode, Arial, Sans-serif">Created by NAS</text><text x="0" y="120" fill="#000000" font-size="5px" font-weight="bold" font-family="'Helvetica Neue', Helvetica, Arial-Unicode, Arial, Sans-serif">from the Noun Project</text></svg>