<svg xmlns="http://www.w3.org/2000/svg" xmlns:xlink="http://www.w3.org/1999/xlink" version="1.1" x="0px" y="0px" viewBox="0 0 100 125" enable-background="new 0 0 100 100" xml:space="preserve"><path d="M20.151,61.935c0-0.983,0.797-1.782,1.782-1.782h2.006v-2.228h52.119v2.228h2.006c0.985,0,1.786,0.799,1.786,1.782  c0,0.984-0.801,1.783-1.786,1.783v10.244h-2.226v-8.016c0-0.984-0.797-1.785-1.778-1.785c-0.984,0-1.785,0.801-1.785,1.785v8.016  h-4.453v-8.016c0-0.984-0.801-1.785-1.785-1.785c-0.984,0-1.778,0.801-1.778,1.785v8.016h-4.46v-8.016  c0-0.984-0.794-1.785-1.778-1.785c-0.984,0-1.785,0.801-1.785,1.785v8.016h-4.453v-8.016c0-0.984-0.801-1.785-1.782-1.785  c-0.984,0-1.782,0.801-1.782,1.785v8.016h-4.456v-8.016c0-0.984-0.797-1.785-1.782-1.785c-0.985,0-1.782,0.801-1.782,1.785v8.016  h-4.456v-8.016c0-0.984-0.797-1.785-1.782-1.785c-0.985,0-1.782,0.801-1.782,1.785v8.016h-4.456v-8.016  c0-0.984-0.797-1.785-1.782-1.785c-0.983,0-1.782,0.801-1.782,1.785v8.016h-2.226V63.718C20.948,63.718,20.151,62.919,20.151,61.935  z M82.075,75.3h-64.15c-0.984,0-1.782,0.801-1.782,1.782c0,0.985,0.797,1.782,1.782,1.782V95h1.782V81.09  c0-1.227,0.996-2.226,2.226-2.226c1.231,0,2.226,0.999,2.226,2.226V95h3.564V81.09c0-1.227,0.999-2.226,2.23-2.226  c1.229,0,2.226,0.999,2.226,2.226V95h3.563V81.09c0-1.227,0.999-2.226,2.226-2.226c1.231,0,2.23,0.999,2.23,2.226V95h3.563V81.09  c0-1.227,0.996-2.226,2.23-2.226c1.227,0,2.226,0.999,2.226,2.226V95h3.563V81.09c0-1.227,0.999-2.226,2.226-2.226  c1.234,0,2.226,0.999,2.226,2.226V95h3.563V81.09c0-1.227,0.999-2.226,2.23-2.226c1.231,0,2.23,0.999,2.23,2.226V95h3.563V81.09  c0-1.227,0.996-2.226,2.226-2.226c1.227,0,2.226,0.999,2.226,2.226V95h3.564V81.09c0-1.227,0.999-2.226,2.226-2.226  c1.234,0,2.226,0.999,2.226,2.226V95h1.786V78.863c0.984,0,1.782-0.797,1.782-1.782C83.857,76.101,83.06,75.3,82.075,75.3z   M25.941,54.099c0-1.273,1.034-2.302,2.303-2.302h0.165c0.97-8.189,6.302-14.998,13.549-17.946c-2.252,2.135-7.74,8.323-7.74,17.981  c0,0.26,0.211,0.47,0.47,0.47c0.259,0,0.47-0.21,0.47-0.47c0-11.603,8.24-18.009,8.323-18.073c0.206-0.158,0.246-0.453,0.09-0.659  c-0.118-0.152-0.303-0.178-0.478-0.138v-3.025h2.685c0-0.426,0.342-0.77,0.771-0.77v-8.826c-0.43,0-0.771-0.345-0.771-0.764  c0-0.426,0.342-0.77,0.771-0.77h1.719v-9.59h0.962V5.764C49.232,5.338,49.578,5,50,5s0.768,0.338,0.768,0.764v3.453h0.962v9.59  h1.719c0.426,0,0.772,0.343,0.772,0.77c0,0.419-0.345,0.764-0.772,0.764v8.826c0.426,0,0.772,0.343,0.772,0.77h2.685v3.448H56.8  c7.876,2.645,13.762,9.763,14.79,18.412h0.162c1.271,0,2.307,1.029,2.307,2.302c0,1.273-1.036,2.303-2.307,2.303H28.244  C26.975,56.402,25.941,55.372,25.941,54.099z M49.293,27.694c0,0.389,0.316,0.705,0.705,0.705c0.39,0,0.705-0.316,0.705-0.705  v-4.702c0-0.389-0.316-0.705-0.705-0.705c-0.389,0-0.705,0.316-0.705,0.705V27.694z M45.503,51.832c0,0.26,0.211,0.47,0.47,0.47  c0.259,0,0.47-0.21,0.47-0.47c0-11.809,0.97-18.312,0.979-18.377c0.039-0.256-0.138-0.497-0.393-0.535  c-0.298-0.042-0.498,0.138-0.536,0.394C46.484,33.379,45.503,39.943,45.503,51.832z M39.861,51.832c0,0.26,0.211,0.47,0.47,0.47  c0.259,0,0.47-0.21,0.47-0.47c0-11.676,4.609-18.106,4.655-18.169c0.154-0.209,0.108-0.503-0.101-0.658  c-0.204-0.152-0.501-0.108-0.656,0.101C44.501,33.375,39.861,39.825,39.861,51.832z"/><text x="0" y="115" fill="#000000" font-size="5px" font-weight="bold" font-family="'Helvetica Neue', Helvetica, Arial-Unicode, Arial, Sans-serif">Created by Steve Morris</text><text x="0" y="120" fill="#000000" font-size="5px" font-weight="bold" font-family="'Helvetica Neue', Helvetica, Arial-Unicode, Arial, Sans-serif">from the Noun Project</text></svg>