<svg xmlns="http://www.w3.org/2000/svg" xmlns:xlink="http://www.w3.org/1999/xlink" version="1.1" x="0px" y="0px" viewBox="0 0 100 125" style="enable-background:new 0 0 100 100;" xml:space="preserve"><path d="M25.676,52.961c0.058-0.018,0.117-0.103,0.151-0.152c0.053-0.075,0.12-0.136,0.131-0.232  c0.006-0.051,0.008-0.106-0.013-0.154c-0.026-0.058-0.094-0.105-0.143-0.143c-0.06-0.046-0.114-0.046-0.144-0.124  c-0.028-0.072-0.013-0.159,0.024-0.226c0.057-0.105,0.1-0.24,0.078-0.362c-0.01-0.06-0.025-0.119-0.036-0.178  c-0.005-0.026-0.004-0.071-0.021-0.092c-0.023-0.027-0.058-0.02-0.09-0.023c-0.059-0.005-0.099-0.023-0.159-0.011  c-0.08,0.017-0.115,0.041-0.153,0.115c-0.03,0.06-0.043,0.111-0.047,0.177c-0.002,0.035-0.012,0.071-0.013,0.105  c-0.001,0.041,0.011,0.081,0.011,0.122c-0.001,0.056,0.001,0.131-0.012,0.185c-0.016,0.064-0.04,0.119-0.05,0.184  c-0.02,0.137,0.139,0.278,0.246,0.347c0.176,0.114,0.225,0.281,0.263,0.476L25.676,52.961z"/><path d="M27.488,53.921c0.029-0.04,0.09-0.068,0.107-0.112c0.014-0.038-0.007-0.091-0.001-0.133  c0.007-0.056,0.014-0.096,0.059-0.134c0.056-0.047,0.065,0.019,0.124,0.022c0.1,0.006,0.101-0.106,0.085-0.177  c-0.024-0.108-0.132-0.135-0.228-0.115c-0.096,0.02-0.176,0.079-0.258,0.131c-0.075,0.048-0.174,0.04-0.228,0.124  c-0.069,0.107-0.02,0.2,0.044,0.294c0.053,0.078,0.164,0.11,0.257,0.108L27.488,53.921z"/><path d="M27.631,52.932c0.033-0.006,0.064-0.017,0.098-0.015c0.031,0.002,0.047,0.007,0.08,0c0.05-0.011,0.1-0.018,0.149-0.029  c0.143-0.034,0.181-0.212,0.049-0.291c-0.059-0.035-0.118-0.036-0.182-0.023c-0.049,0.01-0.131,0.01-0.173,0.037  c-0.023,0.015-0.037,0.044-0.057,0.063c-0.022,0.005-0.037,0.017-0.046,0.037c0,0.019,0.002,0.038,0.009,0.056  c0.006,0.034,0.008,0.156,0.065,0.126L27.631,52.932z"/><path d="M29.843,50.471c-0.03-0.149-0.056-0.288-0.015-0.437c0.038-0.137,0.053-0.256,0.028-0.397  c-0.016-0.091,0.013-0.183,0.021-0.274c0.01-0.107,0.038-0.21,0.063-0.314c0.016-0.064,0.022-0.125,0.046-0.187  C30,48.829,30.02,48.795,30.03,48.76c0.006-0.019,0.004-0.039,0.011-0.058c0.011-0.028,0.034-0.04,0.052-0.062  c0.105-0.122,0.208-0.291,0.251-0.445c0.034-0.121,0.078-0.234,0.083-0.362c0.002-0.062,0.02-0.121,0.042-0.179  c0.027-0.071,0.041-0.157,0.126-0.176c0.058-0.013,0.147,0.026,0.171,0.083c0.025,0.061,0.021,0.135,0.011,0.198  c-0.009,0.064-0.003,0.097,0.052,0.134c0.061,0.042,0.13,0.092,0.131,0.174c0.001,0.076-0.047,0.142-0.075,0.209  c-0.043,0.101-0.055,0.211-0.062,0.319c-0.006,0.094-0.004,0.184,0.003,0.279c0.007,0.092,0.027,0.214,0.067,0.297  c0.032,0.068,0.092,0.136,0.142,0.192c0.026,0.029,0.046,0.059,0.074,0.085c0.029,0.026,0.045,0.06,0.075,0.085  c0.063,0.051,0.154,0.067,0.203,0.13s0.003,0.131-0.051,0.176c-0.049,0.041-0.103,0.066-0.156,0.1  c-0.094,0.062-0.134,0.171-0.211,0.249c-0.059,0.059-0.118,0.122-0.166,0.191c-0.05,0.073-0.078,0.133-0.169,0.155  c-0.076,0.019-0.141,0.037-0.154-0.059c-0.005-0.036,0.009-0.078,0.001-0.111c-0.008-0.034-0.038-0.077-0.054-0.109  c-0.033-0.069-0.066-0.173-0.025-0.24c0.063-0.103,0.193-0.155,0.242-0.273c0.017-0.04,0.015-0.09,0.015-0.134  c0.001-0.052,0.009-0.133-0.004-0.182c-0.031-0.117-0.13,0.041-0.157,0.083c-0.028,0.044-0.044,0.093-0.061,0.142  c-0.017,0.051-0.047,0.089-0.074,0.134c-0.062,0.104-0.086,0.229-0.146,0.331c-0.024,0.041-0.049,0.074-0.069,0.117  c-0.021,0.045-0.043,0.09-0.07,0.131c-0.034,0.051-0.097,0.224-0.185,0.176L29.843,50.471z"/><path d="M30.416,45.915c-0.04-0.036-0.089-0.059-0.129-0.093c-0.031-0.027-0.052-0.065-0.079-0.096  c-0.056-0.064-0.111-0.122-0.132-0.208c-0.029-0.12-0.051-0.257,0.041-0.356c0.046-0.05,0.239-0.054,0.241-0.146  c0-0.027-0.062-0.06-0.076-0.091c-0.015-0.031-0.017-0.06-0.011-0.093c0.01-0.057,0.045-0.111,0.062-0.167  c0.017-0.055,0.029-0.115,0.041-0.171c0.011-0.05,0.038-0.163-0.01-0.199c-0.021-0.016-0.085-0.002-0.108,0.013  c-0.035,0.024-0.037,0.131-0.084,0.134c-0.044,0.003-0.038-0.06-0.047-0.091c-0.01-0.035-0.039-0.091-0.08-0.102  c-0.078-0.02-0.186,0.052-0.205,0.126c-0.026,0.098,0.013,0.196,0.028,0.293c0.013,0.081-0.011,0.18-0.024,0.261  c-0.008,0.047-0.011,0.058-0.052,0.084c-0.045,0.028-0.077,0.035-0.126,0.049c-0.037,0.011-0.069,0.037-0.098,0.06  c-0.062,0.048-0.057,0.075-0.041,0.145c0.009,0.039,0.021,0.081,0.025,0.121c0.007,0.074-0.045,0.102-0.087,0.156  c-0.031,0.039-0.054,0.114-0.061,0.162c-0.009,0.065,0.03,0.074,0.089,0.078c0.11,0.007,0.194,0.041,0.294,0.087  c0.101,0.047,0.188,0.158,0.263,0.238c0.047,0.05,0.111,0.21,0.184,0.181c0.044-0.017,0.1-0.089,0.127-0.128  c0.032-0.046,0.071-0.109,0.051-0.166L30.416,45.915z"/><path d="M32.008,38.135c-0.027-0.137-0.055-0.275-0.082-0.412c-0.01-0.053-0.013-0.115-0.032-0.165  c-0.026-0.07-0.072-0.121-0.113-0.183s-0.088-0.129-0.14-0.183c-0.056-0.057-0.127-0.085-0.187-0.131  c-0.068-0.052-0.12-0.114-0.183-0.17c-0.039-0.035-0.07-0.114-0.094-0.162c-0.048-0.095-0.07-0.251-0.071-0.356  c0-0.06-0.003-0.14-0.046-0.186c-0.053-0.059-0.141-0.083-0.206-0.123c-0.024-0.015-0.061-0.03-0.071-0.058  c-0.016-0.044,0.01-0.042,0.027-0.072c0.032-0.057-0.024-0.125,0.021-0.186c0.025-0.033,0.044-0.022,0.079-0.033  c0.032-0.01,0.06-0.036,0.084-0.06c0.06-0.06,0.063-0.143,0.109-0.212c0.046-0.067,0.093-0.148,0.182-0.13  c0.063,0.013,0.139,0.02,0.202,0.005c0.137-0.032,0.151-0.217,0.078-0.317c-0.052-0.071-0.131-0.043-0.175-0.116  c-0.019-0.032-0.022-0.066-0.029-0.102c-0.006-0.032-0.009-0.122-0.032-0.147c-0.038-0.043-0.169-0.015-0.222-0.004  c-0.041,0.008-0.083,0.01-0.119,0.033c-0.042,0.026-0.052,0.083-0.09,0.107c-0.048,0.03-0.157,0.039-0.209,0.025  c-0.095-0.026-0.155-0.06-0.236,0.024c-0.043,0.045-0.056,0.108-0.094,0.156c-0.034,0.044-0.057,0.074-0.052,0.134  c0.006,0.077,0.031,0.157,0.046,0.232c0.016,0.079,0.04,0.155,0.027,0.236c-0.014,0.084-0.032,0.163-0.043,0.248  c-0.01,0.074-0.01,0.15,0.02,0.22c0.012,0.028,0.038,0.049,0.05,0.076s0.013,0.061,0.019,0.089c0.02,0.095-0.01,0.174-0.005,0.268  c0.006,0.099,0.031,0.224,0.115,0.288c0.043,0.033,0.098,0.033,0.142,0.062c0.04,0.026,0.071,0.053,0.114,0.076  c0.088,0.047,0.16,0.085,0.224,0.164c0.05,0.062,0.108,0.116,0.156,0.18c0.068,0.091,0.13,0.189,0.194,0.284  c0.057,0.086,0.107,0.176,0.165,0.262c0.11,0.162,0.249,0.298,0.412,0.41L32.008,38.135z"/><path d="M27.439,34.582c0.018,0.098,0.014,0.178-0.015,0.274c-0.012,0.04-0.019,0.086-0.046,0.119  c-0.024,0.03-0.058,0.035-0.085,0.059c-0.046,0.042-0.027,0.146-0.005,0.199c0.034,0.085,0.099,0.132,0.186,0.147  c0.075,0.013,0.155,0.063,0.199,0.123c0.046,0.063,0.119,0.101,0.171,0.16c0.123,0.14,0.285,0.247,0.44,0.35l0.004,0.019  c0.046,0.064,0.07,0.172,0.05,0.247c-0.018,0.069-0.029,0.128-0.002,0.199c0.053,0.139,0.212,0.102,0.322,0.08  c0.032-0.006,0.064-0.01,0.094-0.023c0.029-0.013,0.049-0.038,0.078-0.05c0.085-0.037,0.144,0.038,0.189,0.102  c0.041,0.057,0.076,0.117,0.114,0.175c0.045,0.068,0.05,0.155,0.066,0.233c0.012,0.059,0.027,0.111,0.019,0.17  c-0.01,0.073-0.011,0.149-0.025,0.221c-0.022,0.104-0.068,0.202-0.096,0.305c-0.019,0.072-0.039,0.146-0.057,0.217  c-0.033,0.13,0.061,0.224,0.143,0.311c0.087,0.092,0.09,0.254,0.114,0.373c-0.006-0.003-0.011-0.007-0.017-0.01  c-0.086,0.098,0.032,0.311,0.088,0.396c0.049,0.074,0.095,0.074,0.166,0.122c0.041,0.028,0.08,0.055,0.122,0.082  c0.019,0.012,0.035,0.021,0.046,0.04c0.027,0.049,0.027,0.131,0.038,0.187c0.016,0.082,0.032,0.157,0.062,0.235  c0.016,0.042,0.007,0.075,0.058,0.077c0.024,0.001,0.056-0.008,0.078-0.014c0.057-0.016,0.108-0.047,0.162-0.069  c0.032-0.013,0.07-0.01,0.101-0.023c0.027-0.012,0.043-0.033,0.063-0.054c0.038-0.038,0.067-0.087,0.106-0.123  c0.035-0.032,0.082-0.04,0.127-0.04c0.079,0,0.123,0.01,0.138,0.088c0.011,0.055,0.01,0.154,0.042,0.2  c0.03,0.042,0.099,0.042,0.146,0.04c0.072-0.002,0.094-0.015,0.113,0.067c0.01,0.044,0.017,0.09,0.026,0.134  c0.028,0.137,0.001,0.278,0.022,0.414c0.01,0.064,0.004,0.095-0.008,0.158c-0.01,0.052-0.002,0.09,0.008,0.139  c0.012,0.057,0.019,0.116,0.034,0.172c0.009,0.035,0.052,0.127,0.088,0.138c0.074,0.023,0.14-0.169,0.167-0.217  c0.034-0.06,0.045-0.133,0.118-0.155c0.042-0.012,0.131-0.038,0.172-0.03c0.105,0.021,0.109,0.175,0.148,0.248  c0.023,0.042,0.041,0.094,0.091,0.109c0.057,0.017,0.078-0.021,0.098-0.067c0.024-0.054,0.049-0.107,0.057-0.166  c0.008-0.056,0.01-0.11,0.022-0.165c0.01-0.05,0.017-0.103,0.034-0.152c0.011-0.031,0.015-0.053,0.022-0.085  c0.01-0.044,0.034-0.058,0.059-0.092c0.025-0.034,0.061-0.077,0.078-0.115c0.018-0.041,0.003-0.077-0.005-0.119  c-0.02-0.1-0.023-0.189-0.093-0.266c-0.031-0.034-0.059-0.065-0.085-0.102c-0.04-0.057-0.054-0.096-0.068-0.163l-0.004-0.019  c0-0.036-0.036-0.075-0.043-0.113c-0.009-0.048-0.019-0.096-0.029-0.144c-0.02-0.1-0.026-0.22-0.076-0.31  c-0.055-0.098-0.141-0.167-0.231-0.233c-0.107-0.078-0.218-0.133-0.256-0.272c-0.019-0.069-0.027-0.145-0.041-0.215  c-0.016-0.082-0.019-0.19-0.056-0.265c-0.043-0.087-0.136-0.089-0.218-0.107c-0.032-0.007-0.067,0-0.098-0.012  c-0.039-0.016-0.069-0.063-0.096-0.095c-0.068-0.082-0.112-0.179-0.161-0.272c-0.033-0.063-0.103-0.101-0.173-0.09  c-0.124,0.019-0.172,0.072-0.19,0.19c-0.012,0.08-0.022,0.157-0.052,0.234c-0.012,0.032-0.016,0.048-0.04,0.074  c-0.008,0.009-0.032,0.019-0.037,0.03c-0.013,0.031,0.013,0.07,0.034,0.09c0.064,0.059,0.133,0.108,0.183,0.183  c0.036,0.054,0.039,0.127,0.053,0.191c0.006,0.028,0.012,0.053,0.012,0.082c0,0.045,0.011,0.101,0.004,0.144  c-0.013,0.086-0.088,0.113-0.151,0.16c-0.029,0.022-0.061,0.074-0.097,0.043c-0.011-0.009-0.01-0.048-0.013-0.056  c-0.007-0.018-0.018-0.025-0.024-0.04c-0.017-0.04-0.017-0.073-0.045-0.111c-0.03-0.041-0.073-0.048-0.105-0.084  c-0.023-0.026-0.034-0.067-0.054-0.095c-0.027-0.038-0.059-0.044-0.058-0.099c-0.019-0.045,0.018-0.087,0.029-0.129  c0.017-0.063,0.019-0.133,0.007-0.195c-0.007-0.034-0.014-0.069-0.021-0.103c-0.01-0.051-0.035-0.086-0.047-0.134  c-0.026-0.102-0.022-0.196,0.006-0.297c0.032-0.114,0.054-0.2,0.032-0.318c-0.009-0.045-0.024-0.085-0.047-0.126  c-0.021-0.037-0.059-0.068-0.078-0.105c-0.017-0.034-0.019-0.087-0.026-0.124c-0.012-0.064,0.018-0.086,0.033-0.145  c0.009-0.034,0.005-0.069,0.01-0.104c0.005-0.034,0.024-0.067,0.025-0.101c0.002-0.046-0.016-0.096-0.025-0.141  c-0.019-0.102-0.067-0.206-0.154-0.268l-0.004-0.019c-0.023-0.115-0.031-0.259-0.082-0.366c-0.032-0.067-0.084-0.146-0.159-0.169  c-0.056-0.017-0.111,0.004-0.167,0.015c-0.046,0.009-0.103,0.03-0.151,0.026c-0.054-0.005-0.104-0.046-0.153-0.066  c-0.12-0.05-0.231,0.027-0.353,0.032c-0.124,0.005-0.242-0.145-0.326-0.222c-0.036-0.033-0.081-0.076-0.047-0.127  c0.03-0.045,0.109-0.041,0.157-0.041c0.093,0.001,0.187,0.012,0.28,0.011c0.053-0.001,0.107-0.017,0.158-0.028  c0.082-0.016,0.244-0.015,0.252-0.129c0.004-0.057-0.029-0.135-0.041-0.192c-0.011-0.057-0.022-0.115-0.034-0.172  c-0.02-0.099-0.03-0.256,0.079-0.314c0.028-0.015,0.101-0.033,0.133-0.031c0.074,0.002,0.073,0.07,0.069,0.124  c-0.006,0.087-0.01,0.18,0.041,0.257c0.043,0.065,0.083,0.064,0.156,0.049c0.075-0.015,0.097-0.031,0.118-0.109  c0.009-0.032,0.002-0.05,0.006-0.081c0.005-0.04,0.031-0.07,0.052-0.102c0.026-0.039,0.052-0.075,0.082-0.111  c0.032-0.037,0.025-0.04,0.073-0.03c0.036,0.007,0.072,0.013,0.107,0.024c0.054,0.017,0.099,0.038,0.154,0.05  c0.106,0.022,0.206,0.096,0.315,0.078c0.215-0.036,0.357-0.369,0.228-0.546c-0.032-0.044-0.077-0.066-0.132-0.07  c-0.029-0.002-0.038,0.005-0.065-0.008c-0.052-0.026-0.058-0.085-0.067-0.135c-0.012-0.067-0.026-0.085-0.088-0.117  c-0.041-0.021-0.097-0.055-0.146-0.051l-0.019,0.004c-0.035-0.03-0.084-0.045-0.125-0.065c-0.048-0.023-0.084-0.042-0.137-0.048  c-0.088-0.01-0.114-0.025-0.107-0.112c0.005-0.055-0.001-0.068,0.031-0.117c0.023-0.036,0.033-0.079,0.058-0.114  c0.033-0.046,0.052-0.024,0.096-0.05c0.024-0.015,0.058-0.062,0.064-0.089c0.011-0.052-0.023-0.151-0.05-0.195  c-0.04-0.065-0.103-0.165-0.169-0.203c-0.042-0.024-0.105-0.061-0.155-0.066c-0.044-0.005-0.103,0.017-0.146,0.026  c-0.066,0.014-0.119,0-0.185,0.001c-0.134,0.003-0.296,0.05-0.354,0.181c-0.068,0.153-0.049,0.322-0.13,0.472  c-0.071,0.132-0.169,0.244-0.252,0.369c-0.048,0.072-0.114,0.122-0.162,0.192c-0.053,0.077-0.099,0.155-0.154,0.231  c-0.06,0.082-0.105,0.178-0.173,0.255c-0.052,0.059-0.111,0.111-0.161,0.172c-0.06,0.073-0.115,0.15-0.183,0.216  c-0.048,0.048-0.137,0.113-0.138,0.188L27.439,34.582z"/><path d="M29.006,29.789c0.047-0.069,0.104-0.13,0.141-0.205c0.026-0.053,0.05-0.101,0.068-0.157  c0.015-0.049,0.003-0.111,0.002-0.166c0-0.051-0.027-0.101-0.026-0.151c0.001-0.039-0.009-0.033,0.031-0.046  c0.02-0.006,0.043-0.01,0.059,0.007c0.018,0.019,0.007,0.057,0.022,0.079c0.013,0.02,0.044,0.029,0.062,0.046  c0.051,0.049,0.091,0.091,0.15,0.131c0.056,0.037,0.105,0.088,0.164,0.118c0.055,0.028,0.122,0.052,0.164,0.096  c0.051,0.053,0.056,0.107,0.07,0.177c0.012,0.058,0.039,0.131-0.025,0.173c-0.038,0.024-0.123,0.035-0.166,0.034  c-0.075,0-0.147,0.007-0.222,0.01c-0.066,0.003-0.129,0.026-0.196,0.025c-0.061-0.001-0.138,0.033-0.198,0.005  c-0.047-0.021-0.093-0.106-0.095-0.157L29.006,29.789z"/><path d="M28.593,26.509c0.064,0.151,0.232,0.271,0.348,0.38c0.065,0.062,0.136,0.137,0.181,0.216  c0.021,0.037,0.053,0.062,0.075,0.099c0.023,0.036,0.041,0.071,0.068,0.104c0.048,0.058,0.084,0.132,0.122,0.198  c0.039,0.067,0.088,0.133,0.121,0.202c0.033,0.07,0.037,0.162,0.052,0.238c0.014,0.069,0.046,0.154,0.042,0.223  c-0.039,0.002-0.072-0.077-0.1-0.102c-0.055-0.048-0.123-0.083-0.183-0.123c-0.084-0.056-0.17-0.111-0.253-0.168  c-0.067-0.046-0.129-0.101-0.178-0.165c-0.055-0.072-0.087-0.138-0.124-0.221c-0.036-0.081-0.056-0.174-0.113-0.243  c-0.06-0.072-0.125-0.136-0.155-0.226c-0.024-0.071-0.051-0.136-0.063-0.212c-0.008-0.047,0.005-0.078,0.039-0.112  c0.023-0.023,0.072-0.055,0.08,0L28.593,26.509z"/><path d="M26.757,31.757c0.052-0.009,0.095-0.026,0.136-0.06c0.036-0.03,0.08-0.04,0.108-0.078c0.032-0.045,0.031-0.109,0.057-0.159  c0.026-0.049,0.045-0.093,0.059-0.147c0.024-0.089-0.111-0.168-0.186-0.188c-0.044-0.012-0.096-0.011-0.114-0.062  c-0.02-0.056,0.037-0.113,0.044-0.168c0.008-0.061,0.019-0.124,0.008-0.184c-0.006-0.033-0.014-0.066-0.02-0.099  c-0.018-0.092-0.053-0.17-0.072-0.262c-0.008-0.041-0.024-0.058-0.04-0.095c-0.02-0.046-0.036-0.139-0.034-0.191  c0.006-0.113,0.062-0.221,0.067-0.334c0.003-0.072-0.018-0.12-0.085-0.144c-0.043-0.015-0.086-0.052-0.13-0.055  c-0.04-0.002-0.095,0.021-0.135,0.028c-0.052,0.01-0.111,0.016-0.151,0.054c-0.038,0.036-0.09,0.098-0.089,0.151  c0.002,0.059,0.017,0.118,0.014,0.179c-0.006,0.113-0.062,0.234-0.151,0.307c-0.053,0.042-0.101,0.078-0.129,0.146  c-0.017,0.043-0.038,0.094-0.047,0.139c-0.019,0.098-0.022,0.246,0.012,0.339c0.034,0.095,0.17,0.094,0.25,0.143  c0.108,0.068,0.223,0.137,0.323,0.215c0.035,0.027,0.099,0.091,0.091,0.143c-0.007,0.049-0.079,0.104-0.117,0.129  c-0.099,0.064-0.197,0.121-0.19,0.256c0.006,0.117,0.053,0.261,0.193,0.238c0.05-0.008,0.101-0.017,0.15-0.03  c0.068-0.017,0.098-0.071,0.134-0.128L26.757,31.757z"/><path d="M26.617,28.643c-0.015-0.073-0.023-0.147-0.057-0.213c-0.037-0.071-0.072-0.147-0.113-0.214  c-0.028-0.047-0.063-0.084-0.083-0.137c-0.027-0.069-0.076-0.176-0.067-0.253c0.011-0.088,0.067-0.156,0.048-0.25  c-0.013-0.064-0.019-0.152,0.029-0.204c0.034-0.037,0.118-0.061,0.156-0.021c0.043,0.045,0.039,0.159,0.053,0.218  c0.044,0.183,0.126,0.352,0.201,0.526c0.044,0.103,0.084,0.209,0.132,0.31c0.031,0.065,0.051,0.137,0.088,0.197  c0.031,0.051,0.071,0.116,0.128,0.14c0.089,0.038,0.073-0.065,0.099-0.125c0.054-0.127,0.187-0.22,0.307-0.274  c0.068-0.031,0.134-0.075,0.198-0.117c0.069-0.045,0.133-0.089,0.177-0.161c0.037-0.061,0.036-0.096,0.02-0.163  c-0.02-0.085-0.081-0.117-0.136-0.178c-0.132-0.145-0.316-0.229-0.424-0.396c-0.042-0.065-0.086-0.127-0.128-0.191  c-0.051-0.078-0.078-0.161-0.162-0.208c-0.138-0.078-0.31-0.077-0.464-0.099c-0.045-0.006-0.098-0.004-0.141-0.019  c-0.041-0.014-0.072-0.03-0.116-0.038c-0.087-0.016-0.171,0.007-0.243,0.056c-0.054,0.037-0.109,0.075-0.146,0.131  c-0.026,0.038-0.032,0.077-0.044,0.12c-0.019,0.063-0.06,0.113-0.095,0.167c-0.058,0.086-0.114,0.16-0.199,0.221  c-0.077,0.055-0.164,0.106-0.207,0.193c-0.018,0.037-0.042,0.085-0.016,0.125s0.096,0.049,0.131,0.074  c0.071,0.051,0.111,0.188,0.101,0.274c-0.011,0.096,0.012,0.181,0.029,0.275c0.007,0.037,0.009,0.071,0.038,0.098  c0.032,0.029,0.075,0.057,0.109,0.086c0.068,0.057,0.105,0.052,0.189,0.034c0.091-0.02,0.167,0.024,0.243,0.073  c0.034,0.022,0.072,0.036,0.107,0.058c0.034,0.021,0.057,0.04,0.098,0.047c0.038,0.006,0.088,0.003,0.124-0.01  c0.039-0.014,0.052-0.041,0.075-0.076L26.617,28.643z"/><path d="M23.44,30.376c0.015,0.048,0.073,0.103,0.107,0.138c0.019,0.02,0.039,0.052,0.058,0.07c0.017,0.013,0.037,0.022,0.058,0.027  c0.013,0.009,0.024,0.02,0.033,0.032c0.124,0.092,0.181-0.013,0.281-0.08c0.038-0.025,0.113-0.057,0.157-0.029  c0.057,0.037,0.037,0.155,0.059,0.211c0.022,0.055,0.072,0.074,0.12,0.095c0.05,0.023,0.1,0.062,0.154,0.075  c0.026,0.007,0.063,0,0.087,0.015c0.032,0.021,0.026,0.062,0.038,0.094c0.014,0.038,0.032,0.067,0.04,0.109  c0.003,0.018,0.003,0.045,0.014,0.061c0.036,0.051,0.114,0.038,0.167,0.047s0.106,0.004,0.161,0.003c0.038,0,0.07-0.012,0.106-0.017  c0.036-0.006,0.069,0.002,0.106,0c0.056-0.002,0.111-0.003,0.167-0.014c0.03-0.006,0.066-0.005,0.09-0.025  c0.017-0.014,0.036-0.063,0.045-0.082c0.024-0.05,0.042-0.131,0.022-0.184l-0.004-0.019c-0.013-0.063-0.024-0.126-0.038-0.189  c-0.013-0.061,0.029-0.132-0.056-0.144c-0.039-0.005-0.103-0.001-0.127,0.034c-0.027,0.04-0.027,0.15-0.021,0.195  c0.004,0.031,0.015,0.034-0.006,0.054c-0.017,0.016-0.072,0.013-0.094,0.007c-0.088-0.021-0.114-0.129-0.128-0.205  c-0.023-0.122-0.054-0.243-0.073-0.366c-0.018-0.113,0.14-0.188,0.226-0.223c0.059-0.024,0.111-0.011,0.158-0.061  c0.057-0.061,0.086-0.185,0.068-0.266c-0.018-0.08-0.086-0.116-0.165-0.122c-0.046-0.003-0.067-0.004-0.106-0.028  c-0.025-0.015-0.038-0.026-0.063-0.039c-0.02-0.01-0.033-0.008-0.047-0.028c-0.036-0.051-0.002-0.144-0.047-0.189  c-0.019-0.019-0.081-0.024-0.108-0.025c-0.042-0.002-0.081-0.003-0.122-0.018c-0.061-0.021-0.16-0.079-0.18-0.143  c-0.025-0.078,0.101-0.118,0.081-0.208c-0.035-0.151-0.291-0.052-0.388-0.033l0.004,0.019c-0.049-0.03-0.103-0.137-0.119-0.192  c-0.017-0.057-0.02-0.119-0.033-0.176c-0.018-0.078-0.089-0.131-0.162-0.158c-0.034-0.013-0.06,0.006-0.094,0.009  s-0.076-0.002-0.111-0.004c-0.06-0.003-0.113-0.03-0.171-0.037c-0.11-0.013-0.1,0.097-0.148,0.166  c-0.096,0.139-0.26-0.028-0.384,0.036c-0.047,0.025-0.073,0.11-0.112,0.151c-0.03,0.032-0.05,0.064-0.074,0.101  c-0.03,0.044-0.035,0.069-0.05,0.12c-0.011,0.039-0.024,0.06-0.023,0.101c0,0.025-0.015,0.077,0.004,0.099  c0.022,0.026,0.071,0.002,0.099,0c0.044-0.002,0.077,0.004,0.121-0.006c0.143-0.031,0.316-0.002,0.351,0.165  c0.012,0.057,0.025,0.115,0.034,0.173c0.015,0.09-0.042,0.108-0.114,0.126c-0.078,0.02-0.166,0.065-0.222,0.124  c-0.036,0.038-0.049,0.074-0.027,0.121c0.019,0.04,0.055,0.09,0.082,0.126c0.018,0.024,0.04,0.047,0.059,0.07  c0.032,0.039,0.056,0.085,0.089,0.122c0.028,0.03,0.055,0.053,0.08,0.085c0.009,0.011,0.023,0.022,0.03,0.034  c0.015,0.026,0.009,0.055,0.038,0.072L23.44,30.376z"/><path d="M25.478,28.75c0.067-0.013,0.099-0.013,0.166,0.002c0.053,0.012,0.098,0.035,0.15,0.054c0.058,0.021,0.101,0.052,0.14,0.098  c0.043,0.052,0.094,0.086,0.13,0.145c0.059,0.097,0.119,0.198,0.137,0.31c0.021,0.124-0.131,0.19-0.229,0.214  c-0.072,0.018-0.166,0.046-0.241,0.048c-0.114,0.003-0.231-0.112-0.285-0.203c-0.038-0.063-0.073-0.121-0.117-0.179  c-0.035-0.047-0.036-0.114-0.048-0.17c-0.016-0.079-0.025-0.128,0.009-0.203c0.029-0.063,0.057-0.101,0.126-0.124L25.478,28.75z"/><path d="M24.828,27.399c0.039-0.044,0.04-0.104,0.069-0.153c0.027-0.044,0.045-0.092,0.073-0.136  c0.029-0.044,0.045-0.089,0.072-0.133c0.032-0.052,0.07-0.097,0.092-0.155c0.032-0.086,0.046-0.178,0.002-0.265  c-0.031-0.06-0.068-0.047-0.124-0.035c-0.042,0.009-0.084,0.017-0.126,0.025c-0.09,0.017-0.191,0.087-0.246,0.159  c-0.071,0.093-0.099,0.16-0.075,0.275c0.017,0.084,0.012,0.16,0.029,0.245c0.008,0.038,0.011,0.083,0.023,0.12  c0.029,0.091,0.08,0,0.131,0.049L24.828,27.399z"/><path d="M23.127,27.598c-0.013-0.028-0.003-0.039,0.011-0.062c0.003-0.006,0.053-0.07,0.063-0.072  c0.028-0.006,0.049,0.033,0.068,0.046c0.019,0.013,0.055,0.032,0.078,0.04c0.041,0.014,0.105,0.014,0.145-0.003  c0.064-0.027,0.027-0.117-0.007-0.162c-0.02-0.026-0.048-0.041-0.07-0.065c-0.021-0.023-0.036-0.051-0.059-0.074  c-0.039-0.04-0.086-0.065-0.13-0.1c-0.055-0.044-0.105-0.102-0.175-0.123c-0.057-0.017-0.113-0.035-0.171-0.05  c-0.052-0.014-0.09-0.01-0.144-0.014c-0.043-0.003-0.077-0.01-0.119-0.001c-0.046,0.01-0.116,0.007-0.156,0.028  c-0.054,0.029-0.039,0.1-0.029,0.148c0.015,0.071,0.026,0.106,0.073,0.166c0.045,0.057,0.093,0.115,0.155,0.154  c0.059,0.037,0.135,0.068,0.203,0.083c0.058,0.012,0.15,0.016,0.2,0.052L23.127,27.598z"/><path d="M28.663,29.677c-0.023-0.059,0.03-0.134,0.032-0.195c0.003-0.07-0.023-0.091,0.027-0.148  c0.043-0.049,0.099-0.075,0.099-0.15c0-0.051-0.033-0.089-0.066-0.126c-0.021-0.024-0.038-0.032-0.049-0.065  c-0.007-0.021-0.01-0.055-0.014-0.077c-0.013-0.073-0.035-0.118-0.11-0.145c-0.139-0.05-0.31,0.087-0.312,0.233  c-0.001,0.046,0.028,0.091,0.026,0.136c-0.004,0.063-0.044,0.116-0.089,0.152c-0.04,0.032-0.098,0.077-0.076,0.136  c0.024,0.063,0.107,0.04,0.158,0.073c0.044,0.028,0.06,0.073,0.065,0.123c0.005,0.054-0.046,0.111-0.032,0.158  c0.014,0.049,0.087,0.04,0.131,0.039c0.06-0.001,0.108-0.044,0.142-0.089L28.663,29.677z"/><path d="M27.397,29.849c0.042-0.009,0.077-0.013,0.113-0.037c0.034-0.022,0.065-0.031,0.101-0.047  c0.051-0.024,0.164-0.07,0.18-0.133c0.012-0.047-0.017-0.087-0.059-0.091c-0.024-0.002-0.039,0.015-0.066,0.005  c-0.024-0.009-0.046-0.039-0.061-0.057c-0.054-0.066-0.074-0.144-0.113-0.219c-0.05-0.097-0.133-0.073-0.221-0.056  c-0.042,0.008-0.078,0.005-0.104,0.041c-0.03,0.042-0.012,0.087-0.003,0.132c0.017,0.083,0.05,0.153,0.067,0.235  c0.015,0.075,0.027,0.167,0.084,0.223L27.397,29.849z"/><path d="M27.358,30.357c-0.011-0.054-0.014-0.12-0.036-0.17c-0.057-0.005-0.104,0.028-0.152,0.052  c-0.067,0.033-0.111,0.083-0.085,0.16c0.02,0.058,0.067,0.091,0.128,0.087c0.079-0.005,0.11-0.029,0.152-0.091L27.358,30.357z"/><path d="M18.473,69.807c0.12,0.091,0.202,0.2,0.265,0.335c0.016,0.034,0.06,0.14,0.028,0.172c-0.02,0.021-0.091,0.024-0.119,0.026  c-0.057,0.004-0.103-0.027-0.149-0.057c-0.062-0.041-0.085-0.103-0.141-0.15c-0.042-0.036-0.067-0.111-0.076-0.167  c-0.01-0.062-0.001-0.158,0.03-0.213c0.047-0.085,0.151-0.007,0.196,0.047L18.473,69.807z"/><path d="M12.281,65.168c-0.018-0.053,0.014-0.106,0.02-0.16c0.004-0.038,0.002-0.07,0.013-0.106c0.01-0.032,0.015-0.054,0.017-0.089  c0.002-0.044,0.006-0.088,0.007-0.131c0.001-0.048-0.019-0.102-0.028-0.149c-0.006-0.032-0.007-0.109-0.029-0.133  c-0.034-0.037-0.096,0.003-0.136-0.001c-0.056-0.005-0.076-0.036-0.085-0.086c-0.005-0.028-0.011-0.056-0.017-0.084  c-0.006-0.03-0.031-0.086-0.021-0.114c0.008-0.025,0.042-0.042,0.055-0.065c0.015-0.025,0.031-0.067,0.031-0.096  c0-0.014-0.004-0.05-0.014-0.06c-0.021-0.021-0.038-0.001-0.057,0.012c-0.1,0.069-0.175,0.183-0.186,0.304  c-0.01,0.111,0.001,0.222-0.009,0.335c-0.002,0.029,0,0.061-0.005,0.089c-0.005,0.026-0.016,0.048-0.019,0.074  c-0.003,0.03,0,0.055-0.008,0.084c-0.007,0.025-0.021,0.049-0.021,0.076c0.003,0.114,0.056,0.249,0.135,0.332  c0.043,0.045,0.123,0.085,0.181,0.107c0.084,0.031,0.088-0.048,0.132-0.096L12.281,65.168z"/><path d="M10.742,58.39c0.096,0.483,0.193,0.965,0.288,1.448c0.028,0.142,0.06,0.285,0.179,0.38c0.056,0.045,0.09,0.045,0.155-0.002  c0.044-0.031,0.075-0.086,0.118-0.12c0.067-0.053,0.103-0.073,0.145,0c0.038,0.066,0.061,0.148,0.108,0.209  c0.035,0.046,0.083,0.114,0.13,0.145c0.019,0.013,0.182,0.073,0.204,0.065c0.007-0.085-0.034-0.192-0.05-0.275  c-0.019-0.094-0.075-0.194,0.032-0.233c0.075-0.028,0.114-0.058,0.162-0.13c0.033-0.051,0.051-0.123,0.095-0.167  c0.058-0.057,0.068-0.012,0.1,0.045c0.027,0.047,0.051,0.082,0.059,0.139c0.012,0.086-0.101,0.259,0.075,0.229  c0.118-0.021,0.228-0.019,0.347-0.04c0.049-0.009,0.085-0.01,0.118-0.05c0.042-0.052,0.034-0.128,0.092-0.17  c0.038-0.027,0.099-0.015,0.141-0.032c0.045-0.018,0.062-0.039,0.091-0.077c0.031-0.041,0.076-0.138,0.131-0.148  c0.057,0.1-0.005,0.182-0.002,0.28c0.002,0.076,0.028,0.166,0.076,0.22c0.053,0.06,0.117,0.123,0.2,0.136  c0.111,0.017,0.209-0.005,0.247,0.126c0.028,0.096,0.129,0.416,0.014,0.467c-0.177,0.079-0.252-0.276-0.444-0.277  c-0.083,0-0.15,0.057-0.228,0.076s-0.146,0.023-0.217,0.064c-0.075,0.043-0.152,0.128-0.138,0.217  c0.018,0.114,0.014,0.227-0.021,0.339c-0.016,0.052-0.036,0.105-0.059,0.154c-0.023,0.047-0.081,0.097-0.09,0.148  c-0.018,0.095,0.078,0.219,0.112,0.304c0.016,0.041,0.03,0.062-0.01,0.095c-0.036,0.03-0.085,0.025-0.113-0.007  c-0.037-0.041-0.017-0.102-0.066-0.145c-0.045-0.038-0.122-0.056-0.18-0.062c-0.137-0.015-0.238,0.037-0.219,0.191  c0.014,0.108,0.11,0.225,0.165,0.316c0.063,0.104,0.139,0.215,0.176,0.331c0.03,0.093,0.041,0.197,0.061,0.293l-0.008,0.077  c0.001,0.027,0.021,0.039,0.031,0.063c0.007,0.019,0.008,0.045,0.012,0.066c0.012,0.06,0.017,0.109,0.012,0.171  c-0.004,0.057-0.01,0.116-0.017,0.174c-0.004,0.041-0.012,0.082-0.019,0.122c-0.008,0.044-0.023,0.067-0.042,0.106  c-0.029,0.059-0.042,0.122-0.078,0.179c-0.034,0.055-0.075,0.12-0.093,0.182c-0.009,0.032-0.008,0.054-0.01,0.087  c-0.002,0.026-0.016,0.049-0.016,0.075c-0.001,0.062,0.001,0.136,0.02,0.197c0.018,0.059,0.07,0.091,0.121,0.118  c0.074,0.04,0.095,0.098,0.111,0.177c0.021,0.106,0.042,0.211,0.063,0.317c0.014,0.07,0.024,0.131,0.056,0.193  c0.025,0.049,0.063,0.104,0.083,0.156c0.022,0.058,0.039,0.113,0.052,0.175c0.003,0.016,0.019,0.055,0.016,0.07  c-0.006,0.028-0.055,0.044-0.078,0.05c-0.165,0.042-0.288-0.113-0.341-0.251c-0.027-0.07-0.032-0.157-0.047-0.231  c-0.012-0.058,0.011-0.138-0.024-0.19c-0.034,0.025-0.014,0.101-0.024,0.141c-0.021,0.085-0.041,0.167-0.054,0.254  c-0.01,0.067-0.014,0.132-0.043,0.194c-0.034,0.071-0.055,0.145-0.095,0.213c-0.063,0.107-0.192,0.156-0.314,0.149  c-0.07-0.004-0.174,0.001-0.234-0.043c-0.079-0.058-0.094-0.196-0.106-0.284c-0.019-0.139-0.009-0.278-0.033-0.417  c-0.009-0.052-0.004-0.106-0.013-0.158c-0.01-0.062-0.033-0.124-0.034-0.188c-0.002-0.14-0.043-0.281-0.07-0.419  c-0.03-0.153-0.084-0.315-0.059-0.471c0.012-0.074,0.007-0.15,0.02-0.224c0.011-0.061,0.033-0.128,0.054-0.186l-0.003-0.017  c-0.008-0.041-0.019-0.076-0.011-0.118c0.009-0.049,0.029-0.095,0.042-0.143c0.023-0.087,0.053-0.201,0.033-0.289  c-0.017-0.072-0.078-0.132-0.108-0.199c-0.017-0.037-0.03-0.059-0.038-0.1c-0.009-0.044-0.017-0.088-0.026-0.132  c-0.005-0.026-0.017-0.057-0.018-0.084c-0.001-0.031,0.009-0.055,0.015-0.085c0.008-0.045,0.008-0.092,0.015-0.137  c0.017-0.101,0.053-0.201,0.071-0.301c0.007-0.037,0.007-0.075,0.009-0.113c0.002-0.041,0.017-0.116-0.007-0.155  c-0.043-0.072-0.181-0.024-0.221,0.026c-0.05,0.062-0.065,0.161-0.055,0.235c0.009,0.067-0.022,0.133-0.035,0.198  c-0.011,0.053-0.031,0.099-0.048,0.15c-0.017,0.052-0.025,0.111-0.041,0.164c-0.011,0.039-0.015,0.066-0.013,0.104  c0.004,0.07,0.009,0.132,0.022,0.201c0.008,0.041,0.016,0.083,0.025,0.124c0.011,0.053,0.004,0.104,0.013,0.156  c0.009,0.051,0.027,0.101,0.027,0.153c0,0.061,0.018,0.118,0.018,0.178c0,0.04,0,0.071,0.009,0.111  c0.01,0.042,0.002,0.077,0.005,0.119c0.004,0.046,0.015,0.085,0.01,0.132c-0.006,0.057-0.005,0.115,0,0.172  c0.003,0.033-0.002,0.057-0.004,0.089c-0.002,0.036,0.01,0.073,0.006,0.109c-0.003,0.027-0.017,0.05-0.023,0.077  c-0.008,0.035-0.008,0.074-0.01,0.111c-0.011,0.217,0.007,0.428,0.008,0.642c0.001,0.13-0.003,0.261,0,0.389  c0.001,0.053,0.008,0.102,0.006,0.156c-0.003,0.069-0.004,0.137,0.011,0.205c0.008,0.038,0.025,0.082,0.021,0.121  c-0.002,0.024-0.016,0.045-0.019,0.069c-0.002,0.016,0.002,0.037,0,0.054c-0.011,0.086-0.037,0.174-0.057,0.258  c-0.022,0.092-0.04,0.184-0.066,0.276c-0.011,0.041-0.031,0.079-0.045,0.12c-0.019,0.055-0.026,0.111-0.054,0.163  c-0.024,0.043-0.041,0.086-0.059,0.131c-0.021,0.051-0.053,0.091-0.069,0.144s-0.033,0.082-0.031,0.135  c0.002,0.047-0.003,0.095-0.002,0.142c0,0.064-0.002,0.124-0.006,0.188c-0.003,0.051-0.024,0.094-0.032,0.144  c-0.007,0.043-0.001,0.082,0,0.125c0.001,0.034-0.015,0.106,0.019,0.129c0.031-0.008,0.046-0.045,0.07-0.066  c0.029-0.025,0.065-0.038,0.091-0.068c0.054-0.061,0.075-0.166,0.102-0.242c0.022-0.06,0.052-0.115,0.071-0.176  c0.028-0.09,0.1-0.161,0.156-0.235c0.042-0.055,0.217-0.27,0.266-0.144c0.018,0.045,0.004,0.113,0.032,0.155  c0.017,0.025,0.067,0.046,0.091,0.062c0.036,0.024,0.073,0.049,0.109,0.073c0.038,0.025,0.084,0.048,0.116,0.08  c0.034,0.033,0.06,0.076,0.087,0.114c0.036,0.05,0.064,0.115,0.086,0.173c0.024,0.063,0.057,0.114,0.086,0.174  c0.029,0.06,0.055,0.119,0.094,0.175c0.081,0.115,0.182,0.207,0.281,0.307c0.059,0.059,0.13,0.085,0.207,0.113  c0.049,0.018,0.15,0.081,0.206,0.058l0.017-0.003c0.066-0.006,0.105-0.065,0.157-0.1c0.029-0.02,0.058-0.041,0.081-0.067  c0.012-0.013,0.021-0.027,0.029-0.042c0.012-0.013,0.026-0.022,0.043-0.028c0.039-0.04,0.066-0.119,0.091-0.17  c0.018-0.037,0.018-0.077,0.044-0.109c0.03-0.037,0.067-0.05,0.111-0.06c0.045-0.01,0.091-0.018,0.136-0.027  c0.027-0.005,0.068-0.006,0.091-0.021c0.029-0.019,0.041-0.049,0.072-0.069c0.037-0.023,0.078-0.029,0.121-0.037  c0.092-0.017,0.094,0.058,0.154,0.108c0.116,0.096,0.283-0.027,0.379-0.098c0.051-0.038,0.092-0.087,0.142-0.127  c0.042-0.033,0.083-0.061,0.128-0.09c0.097-0.062,0.232-0.079,0.342-0.055c0.067,0.015,0.134,0.005,0.2,0.025  c0.046,0.014,0.11,0.028,0.158,0.024l-0.017,0.089c0.017,0.05-0.013,0.101-0.02,0.15c-0.005,0.04-0.015,0.078-0.017,0.119  c-0.003,0.049,0.005,0.09,0.015,0.139c0.012,0.057,0.051,0.103,0.089,0.147c0.036,0.041,0.068,0.067,0.124,0.061  c0.054-0.006,0.105-0.013,0.161-0.013c0.135-0.001,0.241,0.065,0.359,0.117c0.039,0.017,0.09,0.013,0.132,0.016  c0.036,0.002,0.075,0.005,0.112,0.004c0.102-0.002,0.202-0.024,0.304-0.044c0.049-0.01,0.085-0.016,0.132-0.013  c0.053,0.004,0.105-0.021,0.159-0.019c0.046,0.001,0.087-0.011,0.133-0.005c0.065,0.008,0.129,0.003,0.193,0.013  c0.075,0.011,0.145,0.026,0.214,0.057c0.055,0.024,0.1,0.064,0.155,0.09c0.057,0.027,0.104,0.07,0.161,0.097  c0.054,0.026,0.142,0.072,0.145,0.143l0.003,0.017c0.027,0.015,0.032,0.038,0.05,0.059c0.014,0.016,0.033,0.027,0.048,0.042  c0.033,0.032,0.069,0.07,0.099,0.106c0.044,0.053,0.093,0.115,0.121,0.178c0.068,0.147,0.14,0.307,0.242,0.438  c0.056,0.073,0.1,0.15,0.178,0.202c0.106,0.07,0.223,0.128,0.301,0.23c0.045,0.058,0.082,0.132,0.133,0.183  c0.033,0.033,0.064,0.065,0.094,0.101c0.018,0.022,0.025,0.046,0.05,0.061c0.018,0.011,0.039,0.01,0.056,0.021l0.068,0.093  c0.179-0.036,0.354-0.021,0.533-0.055c0.091-0.018,0.15-0.06,0.231-0.097c0.066-0.031,0.139-0.057,0.202-0.096  c0.032-0.02,0.053-0.047,0.089-0.061c0.033-0.012,0.063-0.018,0.095-0.034c0.065-0.032,0.143-0.059,0.212-0.08  c0.067-0.021,0.129-0.054,0.192-0.083c0.08-0.037,0.201-0.056,0.288-0.064c0.058-0.006,0.131-0.003,0.19,0.001  c0.047,0.003,0.104,0.001,0.148,0.018c0.062,0.023,0.111,0.08,0.159,0.123c0.058,0.051,0.111,0.108,0.169,0.159  c0.091,0.079,0.208,0.11,0.314,0.161c0.074,0.035,0.147,0.067,0.221,0.101c0.088,0.041,0.151,0.113,0.215,0.186  c0.112,0.127,0.197,0.279,0.304,0.41c0.133,0.164,0.324,0.297,0.495,0.42c0.058,0.041,0.105,0.092,0.16,0.136  c0.051,0.04,0.118,0.051,0.167,0.092c0.032,0.027,0.053,0.059,0.089,0.084c0.05,0.034,0.107,0.05,0.155,0.088  c0.01-0.013,0.013-0.028,0.008-0.045l0.029,0.02c0.057,0.068,0.129,0.13,0.191,0.191c0.044,0.043,0.072,0.102,0.1,0.156  c0.055,0.106,0.14,0.257,0.135,0.381c-0.002,0.04-0.021,0.051-0.036,0.088c-0.015,0.038-0.017,0.082-0.026,0.122  c-0.017,0.073,0.002,0.13,0.016,0.205c0.012,0.061,0.026,0.091,0.06,0.14c0.044,0.064,0.06,0.134,0.12,0.19  c0.046,0.044,0.087,0.09,0.124,0.143c0.043,0.06,0.06,0.142,0.092,0.211c0.064,0.136,0.148,0.252,0.175,0.401  c0.014,0.076,0.05,0.137,0.068,0.211c0.016,0.064,0.025,0.13,0.038,0.195c0.024,0.122,0.049,0.244,0.073,0.366l-0.005-0.024  c0.018,0.085,0.055,0.158,0.074,0.24c0.015,0.063,0.041,0.111,0.059,0.17c0.047,0.159,0.159,0.297,0.194,0.464  c0.018,0.085,0.008,0.177-0.029,0.259c-0.03,0.068-0.063,0.113-0.079,0.188c-0.009,0.039-0.017,0.075-0.028,0.114  c-0.016,0.055-0.003,0.096-0.006,0.152c-0.002,0.049-0.012,0.103-0.016,0.152c-0.006,0.064-0.016,0.134-0.012,0.198  c0.006,0.097,0.041,0.199,0.06,0.295c0.014,0.07,0.02,0.149,0.045,0.215c0.016,0.043,0.051,0.079,0.068,0.122  c0.016,0.041,0.022,0.083,0.03,0.126c0.015,0.078,0.036,0.156,0.048,0.234c0.013,0.09-0.033,0.176-0.05,0.263  c-0.019,0.095-0.027,0.172-0.025,0.271c0.004,0.181-0.051,0.385-0.012,0.561l0.005,0.024c0.024,0.119,0.042,0.225,0.11,0.328  c0.04,0.062,0.073,0.124,0.112,0.185c0.046,0.074,0.107,0.11,0.164,0.171c0.056,0.059,0.09,0.141,0.146,0.201  c0.141,0.151,0.309,0.312,0.486,0.429c0.085,0.056,0.165,0.121,0.269,0.138c0.061,0.01,0.136,0.006,0.196,0.004  c0.073-0.003,0.157-0.014,0.229-0.002c0.078,0.013,0.177,0.043,0.245,0.084c0.096,0.058,0.184,0.131,0.282,0.187  c0.086,0.049,0.156,0.125,0.26,0.114c0.152-0.016,0.308-0.094,0.461-0.074c0.096,0.012,0.18,0.064,0.262,0.113  c0.105,0.062,0.212,0.117,0.312,0.187l0.088,0.059c0.187-0.037,0.374-0.075,0.562-0.112c0.074-0.015,0.127-0.03,0.2-0.009  c0.093,0.028,0.199,0.027,0.289,0.062c0.07,0.027,0.123,0.064,0.199,0.083c0.045,0.011,0.09,0.014,0.133,0.029  c0.038,0.013,0.072,0.039,0.112,0.05c0.081,0.023,0.157,0.041,0.235,0.066c0.088,0.028,0.173,0.047,0.264,0.069  c0.083,0.02,0.18,0.005,0.265,0.01c0.091,0.005,0.173-0.007,0.261-0.012c0.07-0.004,0.131-0.003,0.202-0.017  c0.078-0.015,0.137-0.018,0.213-0.019c0.087-0.001,0.133-0.037,0.198-0.089c0.072-0.057,0.176-0.119,0.262-0.151  c0.076-0.028,0.167-0.035,0.246-0.051c0.045-0.009,0.093-0.027,0.14-0.023c0.038,0.003,0.072,0.027,0.111,0.024l0.024-0.005  c0.172-0.034,0.316-0.097,0.475-0.167c0.049-0.022,0.052-0.038,0.09-0.073c0.052-0.047,0.125-0.064,0.179-0.111  c0.031-0.027,0.053-0.055,0.092-0.071c0.038-0.015,0.094-0.017,0.135-0.025c0.071-0.014,0.151-0.02,0.219-0.042  c0.075-0.024,0.147-0.062,0.219-0.09c0.081-0.032,0.16-0.053,0.239-0.097c0.046-0.025,0.091-0.048,0.132-0.083  c0.056-0.047,0.088-0.111,0.145-0.158c0.16-0.133,0.315-0.258,0.492-0.368c0.079-0.049,0.145-0.122,0.219-0.178  c0.071-0.053,0.147-0.097,0.217-0.151c0.128-0.099,0.265-0.193,0.402-0.277c0.162-0.099,0.341-0.119,0.528-0.156l0.024-0.005  c0.163-0.034,0.335,0.022,0.494,0.06c0.052,0.013,0.093,0.016,0.138,0.047c0.042,0.029,0.072,0.072,0.119,0.098  c0.085,0.049,0.178,0.077,0.276,0.073c0.113-0.005,0.228-0.036,0.342-0.038c0.097-0.001,0.182-0.016,0.278-0.036  c0.105-0.021,0.21-0.042,0.315-0.063c0.081-0.016,0.184-0.057,0.267-0.048c0.036,0.004,0.069,0.021,0.105,0.025  c0.041,0.004,0.084,0.002,0.126,0.007c0.084,0.01,0.162-0.014,0.246-0.031c0.144-0.029,0.305-0.042,0.444-0.087  c0.098-0.032,0.184-0.098,0.282-0.133c0.094-0.034,0.184-0.072,0.286-0.083c0.095-0.01,0.184,0.075,0.256,0.134  c0.079,0.064,0.168,0.094,0.258,0.146c0.059,0.055,0.174,0.077,0.249,0.097c0.087,0.024,0.174,0.047,0.263,0.049  c0.191,0.004,0.371-0.09,0.538-0.165c0.066-0.029,0.134-0.04,0.205-0.053c0.125-0.024,0.224,0.03,0.315,0.115s0.204,0.15,0.3,0.23  c0.089,0.074,0.19,0.136,0.281,0.206c0.091,0.071,0.203,0.125,0.285,0.206c0.086,0.085,0.165,0.141,0.192,0.265  c0.04,0.185,0.057,0.384,0.111,0.566c0.013,0.045,0.044,0.096,0.072,0.134c0.034,0.045,0.074,0.052,0.119,0.083  c0.072,0.049,0.151,0.096,0.238,0.118c0.081,0.021,0.18,0.044,0.264,0.05c0.095,0.006,0.209-0.037,0.301-0.055  c0.062-0.012,0.123-0.016,0.174-0.059c0.042-0.036,0.084-0.093,0.115-0.137c0.048-0.066,0.12-0.125,0.155-0.198  c0.025-0.052,0.037-0.082,0.072-0.13c0.073-0.099,0.121-0.177,0.25-0.213c0.082-0.023,0.23-0.067,0.31-0.035  c0.078-0.015,0.124-0.023,0.202,0c0.098,0.028,0.196,0.051,0.296,0.079c0.105,0.029,0.215,0.052,0.317,0.09  c0.042,0.016,0.069,0.032,0.114,0.029c0.024-0.001,0.047-0.016,0.071-0.017c0.066-0.002,0.133,0.015,0.199,0.013  c0.086-0.002,0.172-0.009,0.258-0.027c0.16-0.033,0.32-0.066,0.481-0.096c0.074-0.014,0.125-0.053,0.192-0.083  c0.038-0.017,0.075-0.025,0.111-0.046c0.035-0.02,0.06-0.053,0.094-0.072c0.141-0.082,0.307-0.153,0.462-0.2  c0.117-0.035,0.247-0.048,0.367-0.072c0.063-0.012,0.116-0.027,0.179-0.017s0.144,0.021,0.207,0.017l0.02-0.029  c0.059-0.012,0.118-0.024,0.177-0.035c0.075-0.014,0.115-0.046,0.18-0.08c0.163-0.086,0.279-0.222,0.412-0.349  c0.117-0.11,0.278-0.234,0.445-0.23c0.157,0.004,0.292,0.136,0.417,0.217c0.118,0.076,0.262,0.103,0.388,0.163  c0.041,0.02,0.078,0.047,0.119,0.065c0.044,0.019,0.092,0.025,0.134,0.049c0.03,0.017,0.056,0.041,0.086,0.06  c0.042,0.026,0.076,0.025,0.121,0.041c0.065,0.023,0.124,0.077,0.188,0.106c0.079,0.036,0.12,0.073,0.209,0.082  c0.091,0.009,0.18,0.032,0.271,0.039c0.097,0.007,0.198-0.007,0.294,0.011c0.146,0.028,0.29-0.02,0.436-0.049  c0.069-0.014,0.144-0.04,0.213-0.044c0.048-0.003,0.105-0.005,0.153-0.005c0.037,0,0.071,0.019,0.107,0.005h0.127  c0.128-0.027,0.234-0.089,0.357-0.121c0.043-0.011,0.074-0.037,0.117-0.051c0.033-0.011,0.07-0.011,0.103-0.019  c0.088-0.019,0.162-0.058,0.253-0.076c0.089-0.018,0.179-0.036,0.268-0.053c0.095-0.019,0.179-0.025,0.274-0.028  c0.158-0.005,0.31-0.012,0.467-0.043c0.145-0.029,0.254-0.062,0.359-0.173c0.066-0.069,0.087-0.144,0.127-0.229  c0.031-0.064,0.054-0.135,0.093-0.196c0.044-0.07,0.071-0.131,0.143-0.174c0.096-0.057,0.183-0.07,0.294-0.091  c0.125-0.024,0.239-0.074,0.363-0.098c0.063-0.012,0.125-0.025,0.188-0.038l0.02-0.029c0.082-0.016,0.164-0.033,0.246-0.049  c0.097-0.018,0.181-0.062,0.28-0.081c0.087-0.017,0.152-0.031,0.211-0.103c0.037-0.045,0.052-0.106,0.078-0.157  c0.039-0.076,0.086-0.135,0.147-0.194c0.086-0.085,0.168-0.161,0.268-0.225c0.074-0.048,0.128-0.069,0.215-0.087  c0.095-0.02,0.189-0.005,0.284,0.014c0.094,0.018,0.181,0.026,0.277,0.027c0.201,0.004,0.402-0.055,0.6-0.094  c0.08-0.016,0.168-0.022,0.243-0.053c0.077-0.033,0.156-0.08,0.228-0.122c0.072-0.042,0.141-0.104,0.217-0.137  c0.067-0.029,0.167-0.038,0.239-0.05c0.085-0.014,0.174,0.011,0.251,0.052c0.112,0.058,0.208,0.087,0.334,0.084  c0.225-0.005,0.298-0.168,0.422-0.322c0.159-0.198,0.367-0.422,0.629-0.469l0.024-0.005c0.163-0.032,0.326-0.065,0.489-0.097  c0.065-0.013,0.135-0.036,0.2-0.041c0.068-0.006,0.13,0.021,0.193,0.04c0.066,0.02,0.137,0.023,0.203,0.039  c0.091,0.022,0.178,0.076,0.254,0.129c0.128,0.088,0.308,0.172,0.462,0.188c0.076,0.008,0.155,0.003,0.231-0.001  c0.06-0.003,0.114,0.003,0.174-0.009c0.06-0.013,0.12-0.025,0.181-0.036c0.066-0.012,0.13-0.005,0.195-0.013  c0.149-0.019,0.306-0.016,0.454,0.011c0.087,0.016,0.175,0.008,0.262,0.03c0.059,0.015,0.139,0.022,0.189,0.058l0.02-0.029  c0.081-0.015,0.131-0.053,0.205-0.085c0.076-0.033,0.156-0.064,0.228-0.103c0.058-0.03,0.104-0.042,0.168-0.058  c0.04-0.01,0.066-0.033,0.103-0.048c0.036-0.014,0.083-0.015,0.121-0.023c0.106-0.021,0.213-0.041,0.319-0.063  c0.101-0.021,0.183-0.019,0.285-0.001c0.064,0.011,0.12,0.042,0.183,0.054c0.046,0.009,0.066,0.016,0.108,0.036  c0.065,0.031,0.156,0.041,0.229,0.055c0.096,0.019,0.198,0.031,0.294,0.018c0.052-0.007,0.1,0.001,0.152-0.003  c0.048-0.005,0.092-0.026,0.141-0.024c0.131,0.006,0.299-0.015,0.405-0.099c0.127-0.101,0.269-0.193,0.374-0.314  c0.072-0.083,0.137-0.156,0.223-0.223c0.058-0.045,0.107-0.1,0.167-0.141c0.091-0.062,0.176-0.119,0.253-0.196  c0.079-0.078,0.182-0.133,0.289-0.16c0.118-0.029,0.182-0.053,0.231-0.172c0.032-0.079,0.11-0.179,0.085-0.271l24.132-0.204  c-0.006-0.034-0.03-0.06-0.039-0.093c-0.007-0.024-0.004-0.052-0.013-0.075c-0.021-0.054-0.059-0.107-0.085-0.161  c-0.028-0.057-0.039-0.118-0.069-0.175c-0.033-0.063-0.069-0.126-0.104-0.188c-0.06-0.105-0.114-0.252-0.226-0.311  c-0.058-0.031-0.123-0.041-0.184-0.065c-0.021-0.008-0.071-0.015-0.086-0.032c-0.017-0.019-0.016-0.067-0.02-0.092  c-0.011-0.06-0.016-0.095-0.005-0.154c0.013-0.066,0.029-0.127,0.054-0.19c0.027-0.069,0.068-0.133,0.104-0.199  c0.037-0.068,0.068-0.14,0.11-0.205c0.075-0.114,0.198-0.227,0.246-0.358c0.016-0.044,0.019-0.101,0.03-0.149  c0.016-0.066,0.002-0.117-0.011-0.182l-0.004-0.02c-0.005-0.03-0.045-0.05-0.065-0.07c-0.031-0.032-0.065-0.067-0.093-0.103  c-0.042-0.054-0.08-0.102-0.094-0.17c-0.026-0.125-0.029-0.233-0.005-0.36c0.013-0.067,0.036-0.107,0.021-0.174  c-0.018-0.084-0.043-0.128-0.101-0.197c-0.053-0.063-0.099-0.097-0.117-0.179c-0.013-0.06-0.014-0.11,0.007-0.168  c0.012-0.033,0.026-0.07,0.042-0.101c0.012-0.023,0.037-0.048,0.043-0.074c0.012-0.049-0.023-0.106-0.046-0.143  c-0.062-0.099-0.111-0.191-0.193-0.278c-0.05-0.052-0.091-0.093-0.123-0.159c-0.024-0.05-0.058-0.095-0.084-0.144  c-0.026-0.049-0.052-0.101-0.082-0.146c-0.039-0.059-0.049-0.103-0.063-0.171c-0.019-0.05-0.052-0.096-0.072-0.146  c-0.017-0.041-0.043-0.076-0.062-0.116c-0.045-0.095-0.076-0.214-0.085-0.32c-0.005-0.057,0.001-0.108-0.011-0.166  c-0.012-0.055-0.024-0.111-0.034-0.166c-0.015-0.082,0.002-0.163,0.033-0.239c0.026-0.062,0.05-0.11,0.086-0.166  c0.036-0.055,0.069-0.117,0.097-0.177c0.045-0.094,0.101-0.195,0.048-0.294c-0.044-0.085-0.109-0.142-0.175-0.21  c-0.032-0.033-0.052-0.071-0.082-0.107c-0.022-0.026-0.069-0.051-0.078-0.085l-0.586-43.548  c-15.902,0.151-43.884,0.048-63.863-1.269c0.013,0.064,0.03,0.126,0.023,0.192c-0.007,0.061-0.039,0.173-0.095,0.211  c-0.041,0.028-0.141,0.037-0.191,0.043c-0.085,0.01-0.21-0.011-0.287-0.054c-0.042-0.023-0.111-0.081-0.134-0.126  c-0.025-0.05-0.036-0.128-0.104-0.069c-0.057,0.05-0.098,0.12-0.139,0.182c-0.057,0.086-0.128,0.155-0.168,0.251  c-0.03,0.072-0.042,0.125-0.026,0.202s0.022,0.162,0.051,0.236c0.016,0.041,0.046,0.103,0.101,0.087  c0.022-0.006,0.04-0.03,0.062-0.038c0.036-0.014,0.062-0.016,0.097-0.035c0.025-0.014,0.051-0.021,0.076-0.036  c0.055-0.034,0.108-0.093,0.18-0.082c0.024,0.004,0.053,0.021,0.076,0.03c0.039,0.016,0.081,0.018,0.118,0.035  c0.078,0.036,0.079,0.15,0.071,0.223c-0.008,0.063-0.016,0.159-0.051,0.21l0.004,0.021c-0.068,0.073-0.114,0.124-0.206,0.167  c-0.071,0.033-0.138,0.071-0.209,0.102c-0.072,0.032-0.146,0.03-0.22,0.053c-0.081,0.026-0.1,0.054-0.082,0.136  c0.031,0.142,0.083,0.232,0.187,0.336c0.064,0.064,0.106,0.088,0.191,0.108c0.038,0.009,0.07,0.029,0.109,0.034  c0.056,0.007,0.107,0.003,0.159,0.029c0.111,0.055,0.109,0.216,0.131,0.327c0.01,0.052,0.027,0.105,0.027,0.158  c0,0.087-0.078,0.151-0.121,0.222c-0.138,0.225-0.034,0.555,0.178,0.689c0.055-0.029-0.045-0.168-0.011-0.215  c0.036-0.05,0.15-0.028,0.202-0.028c0.038,0.001,0.074,0.014,0.112,0.015c0.027,0.001,0.055-0.008,0.082-0.007  c0.033,0.001,0.08,0.003,0.11,0.014c0.054,0.02,0.165,0.127,0.173,0.186l-0.029-0.038c0.011,0.066-0.043,0.128-0.056,0.19  c-0.016,0.079,0.016,0.198,0.038,0.273c0.024,0.082,0.082,0.163,0.027,0.251c-0.056,0.087-0.157,0.09-0.131,0.211  c0.033,0.153,0.246,0.223,0.366,0.292c0.04,0.023,0.082,0.052,0.119,0.079c0.029,0.021,0.051,0.058,0.084,0.073  c0.042,0.019,0.156,0.018,0.183-0.03c0.025-0.044-0.026-0.169-0.035-0.219c-0.009-0.045-0.009-0.158-0.074-0.159  c-0.133-0.003,0.058,0.298-0.129,0.228c-0.07-0.026-0.124-0.067-0.183-0.112c-0.065-0.05-0.066-0.089-0.025-0.154  c0.037-0.058,0.072-0.111,0.101-0.173c0.034-0.071,0.105-0.101,0.155-0.161c0.061-0.074,0.124-0.151,0.177-0.23  c0.06-0.092,0.135-0.179,0.188-0.274c0.029-0.053,0.045-0.115,0.057-0.173c0.011-0.054-0.001-0.145,0.025-0.194  c0.04-0.075,0.115,0.036,0.148,0.077c0.041,0.052,0.081,0.099,0.131,0.143c0.057,0.049,0.101,0.091,0.145,0.151  c0.042,0.056,0.113,0.103,0.175,0.136c0.081,0.044,0.171,0.079,0.259,0.104c0.071,0.021,0.158,0.052,0.137,0.148  c-0.014,0.063-0.087,0.097-0.092,0.166c-0.004,0.055,0.02,0.121,0.031,0.174c0.01,0.048,0.021,0.068-0.003,0.11  c-0.014,0.025-0.054,0.057-0.074,0.08c-0.02,0.023-0.046,0.06-0.072,0.076c-0.036,0.022-0.065,0.006-0.092,0.047  c-0.075,0.112,0.086,0.263,0.163,0.314c0.046,0.031,0.109,0.05,0.152,0.084c0.051,0.041,0.028,0.034,0,0.066  c-0.035,0.039-0.08,0.067-0.116,0.104c-0.054,0.055-0.059,0.089-0.035,0.162c0.021,0.063,0.087,0.057,0.132,0.102  c0.028,0.028,0.055,0.09,0.044,0.131c-0.012,0.045-0.042,0.037-0.067,0.07c-0.03,0.041-0.043,0.112-0.038,0.161  c0.011,0.111,0.031,0.213,0.122,0.282l0.122,0.063c0.047,0.023,0.071,0.075,0.109,0.109c0.038,0.035,0.077,0.065,0.105,0.11  c0.053,0.083,0.062,0.179,0.081,0.273c0.018,0.089,0.049,0.181,0.033,0.271c-0.02,0.114-0.072,0.241-0.191,0.28  c-0.075,0.025-0.202,0.062-0.268,0.004c-0.058-0.052-0.039-0.112-0.064-0.175c-0.029-0.073-0.138-0.018-0.2-0.008  c-0.075,0.013-0.157-0.025-0.227-0.053c-0.055-0.022-0.221-0.112-0.244-0.019c-0.009,0.036,0.014,0.085,0.042,0.101  c0.013,0.007,0.032,0.006,0.045,0.013c0.02,0.011,0.039,0.036,0.058,0.05c0.148,0.112,0.303,0.213,0.444,0.334  c0.071,0.061,0.085,0.144,0.119,0.226c0.044,0.104,0.024,0.208-0.002,0.31c-0.026,0.099-0.026,0.197-0.006,0.296  c0.013,0.067,0.018,0.147,0.041,0.211c0.027,0.075,0.074,0.163,0.131,0.218c0.063,0.06,0.096,0.146,0.071,0.236  c-0.011,0.037-0.035,0.073-0.05,0.109c-0.014,0.033-0.03,0.082-0.063,0.099c-0.061,0.032-0.152-0.057-0.209-0.081  c-0.006,0.092,0.118,0.223,0.06,0.31c-0.079,0.118-0.29-0.025-0.374-0.069c-0.122-0.064-0.215-0.163-0.305-0.261  c-0.092-0.099-0.132-0.228-0.158-0.356l-0.004-0.021c-0.018-0.093-0.038-0.185-0.055-0.278c-0.011-0.055-0.012-0.112-0.063-0.146  c-0.043-0.028-0.091-0.02-0.137-0.007c-0.088,0.025-0.09,0.156-0.087,0.237c0.003,0.088,0.038,0.177,0.052,0.264  c0.018,0.109-0.051,0.129-0.13,0.068c-0.057-0.044-0.078-0.101-0.108-0.164c-0.033-0.068-0.057-0.137-0.084-0.207  c-0.026-0.066-0.072-0.138-0.056-0.213c0.018-0.08,0.114-0.136,0.121-0.219c0.005-0.061-0.048-0.168-0.119-0.165  c-0.04,0.002-0.084,0.038-0.122,0.049c-0.033,0.009-0.054,0.018-0.085,0.033c-0.065,0.032-0.13,0.06-0.196,0.091  c-0.059,0.028-0.117,0.065-0.181,0.077c-0.049,0.009-0.097,0.019-0.146,0.029c-0.066,0.013-0.4,0.045-0.394,0.121  c0.002,0.023,0.038,0.072,0.048,0.095c0.022,0.048,0.044,0.066,0.081,0.099c0.061,0.055,0.126,0.095,0.192,0.147  c0.062,0.049,0.142,0.119,0.16,0.198c0.014,0.062,0.024,0.126,0.036,0.188l-0.021,0.004c-0.055,0.089-0.164,0.12-0.258,0.139  c-0.056,0.011-0.138,0.005-0.138,0.076c0.001,0.073,0.043,0.135,0.064,0.2c0.016,0.049,0.009,0.083,0.044,0.123  c0.024,0.027,0.055,0.062,0.085,0.081c0.061,0.04,0.102,0.079,0.153,0.131c0.069,0.069,0.111,0.11,0.206,0.092  c0.118-0.022,0.244-0.111,0.334-0.187c0.062-0.052,0.113-0.067,0.188-0.091c0.07-0.022,0.146-0.06,0.213-0.09  c0.053-0.023,0.29-0.122,0.326-0.047c0.035,0.071-0.102,0.197-0.149,0.234c-0.054,0.042-0.091,0.082-0.033,0.137  c0.051,0.048,0.133,0.074,0.194,0.114c0.057,0.038,0.058,0.074,0.071,0.139c0.012,0.062,0.017,0.11,0.007,0.173  c-0.009,0.053,0.004,0.097,0.014,0.149c0.014,0.071,0.017,0.141,0.109,0.133c0.05-0.005,0.102-0.022,0.151-0.032l0.021-0.004  c0.081-0.016,0.16-0.02,0.226-0.072c0.046-0.037,0.181-0.177,0.238-0.109c0.018,0.022,0.019,0.089,0.024,0.114  c0.009,0.043,0.02,0.078,0.009,0.121s-0.041,0.098-0.067,0.134s-0.081,0.056-0.089,0.103c-0.006,0.035,0.017,0.109,0.027,0.143  c0.015,0.048,0.044,0.088,0.065,0.134c0.028,0.059,0.037,0.07,0.091,0.097c0.039,0.019,0.073,0.047,0.115,0.06  c0.109,0.035,0.263-0.018,0.33,0.108c0.016,0.03,0.009,0.062,0.033,0.089c0.024,0.028,0.085,0.08,0.116,0.096  c0.065,0.035,0.227-0.01,0.295-0.039c0.068-0.029,0.144-0.07,0.197-0.121c0.054-0.052,0.111-0.106,0.16-0.164  c0.04-0.047,0.067-0.109,0.136-0.118c0.091-0.012,0.083,0.095,0.096,0.163c0.018,0.091-0.009,0.185-0.06,0.264  c-0.038,0.057-0.091,0.096-0.139,0.144c-0.014,0.014-0.025,0.037-0.043,0.048c-0.015,0.009-0.043,0.008-0.058,0.019  c-0.053,0.039-0.118,0.157-0.124,0.222c-0.008,0.082-0.003,0.169,0.001,0.252c0.005,0.089-0.02,0.155-0.076,0.227  c-0.047,0.06-0.109,0.14-0.125,0.216c-0.03,0.142,0.018,0.282,0.046,0.422c0.019,0.094,0.031,0.179,0.08,0.262  c0.037,0.063,0.073,0.124,0.113,0.184c0.017,0.025,0.029,0.052,0.042,0.078c0.019,0.039,0.052,0.074,0.068,0.113  c0.022,0.053,0.036,0.147,0.011,0.195c-0.014,0.026-0.047,0.069-0.064,0.093c-0.037,0.051-0.063,0.106-0.094,0.161  c-0.047,0.083-0.092,0.185-0.12,0.276c-0.064,0.211,0.014,0.398,0.071,0.602c0.019,0.069,0.038,0.139,0.082,0.197  c0.025,0.033,0.057,0.059,0.081,0.094c0.034,0.048,0.072,0.094,0.117,0.133c0.077,0.068,0.166,0.099,0.22,0.191  c0.02,0.034,0.047,0.07,0.06,0.108c0.011,0.031,0.01,0.064,0.023,0.095c0.023,0.055,0.052,0.143,0.095,0.183  c0.053,0.049,0.134,0.041,0.199,0.048c0.08,0.009,0.121,0.063,0.165,0.126c0.047,0.069,0.092,0.139,0.149,0.202l0.004,0.021  c0.007,0.029,0.034,0.038,0.054,0.058c0.021,0.021,0.037,0.051,0.062,0.068c0.044,0.03,0.092,0.027,0.141,0.019  c0.1-0.017,0.177-0.051,0.262-0.107c0.053-0.034,0.13-0.133,0.18-0.035c0.055,0.108-0.078,0.209-0.089,0.306  c-0.01,0.086,0.073,0.171-0.022,0.229c-0.085,0.052-0.189,0.067-0.281,0.103c-0.098,0.039-0.189,0.11-0.271,0.175  c-0.041,0.033-0.056,0.064-0.083,0.109c-0.03,0.052-0.078,0.084-0.114,0.132l-0.034,0.05c-0.032,0.065-0.108,0.099-0.155,0.153  c-0.046,0.053-0.087,0.11-0.13,0.166c-0.108,0.141-0.23,0.269-0.332,0.414c-0.065,0.092-0.103,0.178-0.128,0.288  c-0.018,0.081-0.009,0.161-0.013,0.244c-0.01,0.178,0.017,0.377-0.049,0.545c-0.053,0.136-0.12,0.31-0.223,0.415  c-0.068,0.07-0.098,0.146-0.144,0.23c-0.041,0.075-0.111,0.152-0.101,0.243c0.021,0.188,0.088,0.365,0.158,0.539  c0.025,0.063,0.071,0.116,0.094,0.179c0.021,0.058,0.027,0.127,0.039,0.188c0.014,0.069,0.033,0.134,0.025,0.205  c-0.007,0.06-0.01,0.119-0.014,0.179c-0.004,0.065-0.026,0.142-0.045,0.205c-0.011,0.035-0.032,0.066-0.042,0.101  c-0.009,0.033-0.009,0.064-0.03,0.093l-0.017,0.025c-0.046,0.069-0.044,0.161-0.084,0.234c-0.027,0.051-0.105,0.1-0.12,0.154  c-0.02,0.076,0.066,0.214,0.115,0.267c0.043,0.047,0.088,0.103,0.137,0.143c0.047,0.037,0.103,0.065,0.152,0.1  c0.092,0.066,0.191,0.13,0.309,0.133c0.15,0.004,0.306,0.004,0.451-0.043c0.054-0.018,0.135-0.052,0.133-0.118  c-0.001-0.028-0.049-0.121-0.057-0.141c-0.022-0.051-0.051-0.089-0.083-0.134c-0.062-0.085-0.113-0.173-0.128-0.279  c-0.013-0.09-0.005-0.186-0.005-0.277c0-0.079-0.01-0.163,0.023-0.237c0.027-0.061,0.071-0.114,0.098-0.175  c0.028-0.063,0.056-0.129,0.075-0.195c0.013-0.044,0.021-0.111,0.083-0.063c0.048,0.037,0.062,0.175,0.061,0.23  c-0.003,0.106-0.078,0.173-0.105,0.27c-0.028,0.101,0.059,0.177,0.123,0.24c0.05,0.049,0.095,0.111,0.16,0.138  c0.049,0.02,0.101,0.018,0.123,0.073c0.027,0.067,0.004,0.16,0.003,0.23c-0.001,0.136,0.008,0.28,0.036,0.413  c0.062,0.3,0.109,0.616,0.097,0.923c-0.009,0.244,0.046,0.479,0,0.72c-0.021,0.109-0.032,0.217-0.06,0.324  c-0.015,0.061-0.041,0.114-0.054,0.175c-0.01,0.049-0.022,0.097-0.031,0.146c-0.009,0.052-0.02,0.102-0.029,0.154  c-0.009,0.049-0.01,0.13-0.039,0.169c-0.028,0.039-0.194,0.058-0.243,0.057c-0.103-0.002-0.185-0.046-0.25-0.125  c-0.066-0.081-0.101-0.211-0.103-0.315c-0.001-0.057,0.003-0.113,0.008-0.168c0.006-0.06,0.001-0.108-0.012-0.169  c-0.04-0.196-0.095-0.403-0.044-0.601c0.018-0.071,0.045-0.135,0.058-0.206c0.005-0.029,0.019-0.06,0.022-0.089  c0.002-0.021-0.006-0.043-0.004-0.064c0.006-0.062,0.022-0.094,0.008-0.161c-0.01-0.047-0.013-0.102-0.033-0.145  c-0.05-0.107-0.159-0.191-0.267-0.233c-0.052-0.02-0.1-0.031-0.153-0.055c-0.04-0.018-0.085-0.02-0.123-0.039  c-0.049-0.024-0.081-0.045-0.136-0.061c-0.058-0.016-0.115-0.033-0.171-0.055c-0.083-0.032-0.168-0.066-0.249-0.103  c-0.08-0.036-0.155-0.116-0.248-0.122c-0.092-0.005-0.114,0.127-0.097,0.196c0.021,0.087,0.088,0.145,0.151,0.205  c0.08,0.076,0.15,0.173,0.225,0.256c0.082,0.09,0.157,0.183,0.249,0.261c0.069,0.058,0.069,0.13,0.086,0.215  c0.017,0.086,0.04,0.176,0.031,0.261c-0.008,0.083-0.111,0.091-0.177,0.104l-0.004-0.021c-0.063-0.032-0.082-0.095-0.112-0.152  c-0.033-0.062-0.085-0.105-0.144-0.147c-0.066-0.046-0.124-0.087-0.182-0.144c-0.053-0.053-0.125-0.098-0.201-0.109  c-0.077-0.011-0.103,0.073-0.115,0.139c-0.006,0.03-0.006,0.06-0.009,0.09c-0.005,0.051-0.014,0.069-0.044,0.112  c-0.03,0.044-0.104,0.123-0.114,0.175c-0.011,0.054,0.045,0.154,0.073,0.199c0.027,0.043,0.065,0.074,0.091,0.119  c0.02,0.035,0.039,0.058,0.066,0.089c0.064,0.072,0.081,0.153,0.094,0.249c0.012,0.084-0.017,0.161-0.019,0.242  c-0.002,0.08,0.038,0.129,0.082,0.187c0.064,0.083,0.088,0.276,0.086,0.38c-0.001,0.065-0.004,0.131-0.005,0.197  c-0.001,0.069,0.016,0.136,0.03,0.204c0.001,0.075,0.095,0.119,0.154,0.144c0.093,0.04,0.15,0.089,0.19,0.181  c0.021,0.049,0.035,0.114,0.033,0.167c-0.002,0.059,0.005,0.111,0.017,0.172c0.014,0.072,0.024,0.107,0.061,0.167  c0.015,0.024,0.021,0.052,0.036,0.076c0.016,0.027,0.042,0.045,0.055,0.075c0.021,0.049,0.022,0.117,0.033,0.169  c0.013,0.067,0.03,0.125,0.022,0.192c-0.015,0.127-0.041,0.24-0.073,0.364c-0.038,0.15-0.051,0.297-0.147,0.422  c-0.164,0.214-0.483,0.227-0.73,0.276l-0.021,0.004c-0.045,0.003-0.1,0.034-0.141,0.052c-0.04,0.018-0.077,0.044-0.117,0.064  c-0.032,0.017-0.097,0.039-0.109,0.075c-0.014,0.044,0.034,0.056,0.06,0.087c0.047,0.056,0.078,0.111,0.092,0.182  c0.011,0.055,0.032,0.102,0.006,0.154c-0.022,0.044-0.056,0.094-0.084,0.136c-0.049,0.074-0.111,0.101-0.129,0.194  c-0.009,0.045-0.005,0.164-0.081,0.157c-0.036-0.003-0.078-0.066-0.105-0.088s-0.041-0.034-0.059-0.063  c-0.037-0.061-0.044-0.127-0.058-0.197c-0.026-0.13-0.028-0.275-0.146-0.353c-0.069-0.046-0.144-0.078-0.211-0.126  c-0.06-0.044-0.118-0.092-0.179-0.134c-0.059-0.041-0.111-0.089-0.16-0.142c-0.035-0.039-0.083-0.127-0.145-0.125  c-0.063,0.002-0.104,0.124-0.114,0.175c-0.012,0.062-0.006,0.12,0,0.18c0.005,0.055-0.003,0.117-0.006,0.171  c-0.003,0.056,0.018,0.119,0.004,0.175c-0.008,0.034-0.045,0.084-0.061,0.115c-0.014,0.029-0.032,0.054-0.05,0.08  c-0.043,0.064-0.097,0.116-0.139,0.18c-0.044,0.054-0.063,0.131-0.093,0.193c-0.029,0.061-0.063,0.113-0.097,0.171  c-0.03,0.052-0.045,0.101-0.085,0.147c-0.051,0.061-0.06,0.138-0.083,0.213c-0.048,0.156-0.105,0.31-0.147,0.468  c-0.038,0.14-0.104,0.266-0.185,0.386c-0.038,0.056-0.061,0.12-0.102,0.173c-0.032,0.042-0.053,0.077-0.078,0.123  c-0.039,0.072-0.073,0.122-0.143,0.167c-0.044,0.028-0.095,0.033-0.143,0.055c-0.065,0.029-0.117,0.037-0.172,0.088  c-0.043,0.04-0.08,0.085-0.122,0.125c-0.038,0.037-0.074,0.087-0.12,0.115c-0.039,0.024-0.113,0.036-0.137,0.075l-0.042,0.008  c-0.083,0.016-0.195,0.054-0.279,0.03c-0.07-0.019-0.143-0.125-0.186-0.178c-0.042-0.051-0.088-0.084-0.152-0.101  c-0.041-0.011-0.09-0.014-0.122-0.046c-0.033-0.033-0.043-0.094-0.062-0.134c-0.057-0.114-0.038-0.264-0.086-0.382  c-0.024-0.061-0.058-0.113-0.074-0.177c-0.019-0.076-0.064-0.093-0.136-0.056c-0.064,0.033-0.092,0.117-0.123,0.177  c-0.042,0.082-0.074,0.17-0.103,0.257c-0.019,0.058-0.063,0.122-0.069,0.183c-0.006,0.06,0.023,0.134,0.035,0.194  c0.017,0.083,0.059,0.191,0.052,0.276c-0.007,0.082-0.064,0.095-0.124,0.133c-0.074,0.047-0.097,0.043-0.139-0.039  c-0.022-0.043-0.03-0.097-0.052-0.141c-0.042-0.083-0.126-0.067-0.103-0.178c0.011-0.056,0.044-0.103,0.057-0.158  c0.033-0.133,0.122-0.266,0.138-0.403c0.004-0.037-0.011-0.167-0.037-0.192c-0.027-0.025-0.076-0.009-0.105,0.006  c-0.054,0.029-0.102,0.09-0.143,0.134c-0.03,0.032-0.034,0.047-0.079,0.06c-0.035,0.01-0.075,0.014-0.111,0.021  c-0.072,0.013-0.145,0.033-0.164,0.119c-0.009,0.042,0.018,0.106,0.026,0.147c0.019,0.096,0.035,0.165,0.009,0.262  c-0.028,0.105-0.101,0.17-0.141,0.269c-0.051,0.128,0.043,0.224,0.128,0.3c0.041,0.037,0.088,0.104,0.024,0.146  c-0.052,0.034-0.095,0.014-0.14,0.074c-0.032,0.043-0.048,0.111-0.049,0.164c-0.001,0.05,0.029,0.102,0.011,0.151  c-0.028,0.078-0.095,0.012-0.12-0.039c-0.018-0.037-0.036-0.111-0.035-0.152c0.001-0.05,0.008-0.077-0.003-0.129  c-0.011-0.054-0.006-0.097-0.008-0.151c-0.001-0.031-0.006-0.055-0.002-0.087c0.004-0.031,0.014-0.059,0.011-0.09  c-0.004-0.048-0.021-0.098-0.03-0.146l0.013-0.046c-0.001-0.11,0.025-0.226-0.051-0.319c-0.067-0.082-0.141-0.045-0.182,0.033  c-0.028,0.053-0.05,0.092-0.061,0.151c-0.013,0.071-0.023,0.166-0.049,0.234c-0.023,0.061-0.069,0.163-0.12,0.207  c-0.046,0.039-0.102,0.044-0.159,0.057c-0.064,0.015-0.136,0.063-0.168,0.12c-0.019,0.035-0.045,0.162-0.082,0.169  c-0.029-0.039-0.036-0.143-0.039-0.187c-0.002-0.037,0.005-0.073-0.001-0.109c-0.006-0.036-0.018-0.059-0.008-0.095  c0.032-0.112,0.084-0.182,0.186-0.241c0.076-0.044,0.241-0.11,0.237-0.21c-0.002-0.045-0.027-0.091-0.03-0.136  c-0.004-0.056,0.024-0.122,0.054-0.17c0.074-0.116,0.199-0.198,0.292-0.298c0.049-0.053,0.101-0.106,0.149-0.161  c0.034-0.04,0.093-0.097,0.097-0.15c0.007-0.11-0.107-0.156-0.193-0.112c-0.097,0.05-0.16,0.207-0.219,0.29  c-0.048,0.068-0.159,0.128-0.239,0.147c-0.043,0.01-0.088,0.017-0.131,0.025c-0.059,0.011-0.084,0.025-0.123,0.068  c-0.038,0.042-0.074,0.079-0.103,0.128c-0.033,0.056-0.069,0.12-0.123,0.16c-0.078,0.058-0.219,0.057-0.281-0.032  c-0.071-0.102,0.03-0.198,0.1-0.262c0.071-0.063,0.236-0.082,0.276-0.174c0.042-0.097-0.085-0.082-0.142-0.07  c-0.083,0.017-0.144,0.038-0.222,0.072c-0.051,0.022-0.078,0.035-0.089-0.032c-0.006-0.038,0-0.076,0.022-0.11  c0.065-0.097,0.236-0.116,0.337-0.153c0.061-0.022,0.124-0.052,0.187-0.065c0.061-0.013,0.109-0.026,0.166-0.049  c0.105-0.044,0.231-0.053,0.31-0.143c0.038-0.043,0.07-0.06,0.098-0.112c0.021-0.039,0.055-0.092,0.059-0.138  c0.005-0.059-0.033-0.167-0.1-0.184c-0.038-0.01-0.092,0.002-0.131,0.001c-0.038-0.001-0.072-0.005-0.11-0.001  c-0.086,0.009-0.165,0.01-0.251,0.028c-0.107,0.022-0.222,0.012-0.332,0.006c-0.082-0.004-0.203,0.023-0.271-0.038  c-0.057-0.051-0.061-0.187-0.072-0.26c-0.011-0.071,0.015-0.151,0.045-0.216c0.041-0.09,0.098-0.175,0.177-0.236  c0.054-0.042,0.132-0.148,0.211-0.112c0.039,0.018,0.048,0.082,0.035,0.121c-0.007,0.02-0.022,0.035-0.032,0.053  c-0.017,0.031-0.022,0.067-0.035,0.1c-0.028,0.068-0.043,0.163,0.02,0.218c0.027,0.023,0.05,0.027,0.073,0.056  c0.015,0.018,0.018,0.039,0.036,0.055c0.037,0.034,0.086,0.037,0.132,0.049c0.071,0.018,0.163,0.057,0.235,0.031  c0.042-0.015,0.078-0.034,0.121-0.046c0.041-0.012,0.069-0.04,0.102-0.065c0.079-0.061,0.168-0.125,0.224-0.21  c0.029-0.044,0.056-0.098,0.083-0.145c0.026-0.046,0.022-0.099,0.046-0.147c0.033-0.068,0.065-0.13,0.091-0.202  c0.034-0.093,0.066-0.185,0.103-0.277c0.021-0.051,0.032-0.087,0.046-0.14c0.012-0.046,0.051-0.091,0.047-0.14l0.021-0.004  c0.096-0.064,0.24-0.07,0.353-0.092c0.101-0.02,0.183-0.043,0.277-0.087c0.099-0.046,0.197-0.139,0.274-0.216  c0.045-0.045,0.057-0.089,0.078-0.149c0.024-0.066,0.061-0.123,0.072-0.192c0.018-0.109,0.022-0.217,0-0.325  c-0.018-0.091-0.036-0.182-0.054-0.272c-0.024-0.119-0.068-0.248-0.072-0.369c-0.003-0.087,0.044-0.241,0.138-0.118  c0.032,0.043,0.033,0.107,0.043,0.159c0.011,0.055,0.022,0.109,0.033,0.164c0.015,0.077,0.025,0.144,0.064,0.212  c0.023,0.039,0.032,0.085,0.065,0.116c0.033,0.03,0.07,0.031,0.105,0.048c0.058,0.029,0.078,0.135,0.073,0.199  c-0.006,0.072-0.016,0.153-0.032,0.225c-0.024,0.102-0.067,0.187-0.104,0.285c-0.026,0.067,0.012,0.158,0.026,0.228  c0.017,0.083,0.062,0.199,0.041,0.283c-0.011,0.043-0.037,0.099-0.056,0.138c-0.025,0.049-0.068,0.085-0.093,0.135  c-0.046,0.091-0.091,0.187-0.119,0.286c-0.023,0.083,0.017,0.184,0.033,0.267c0.008,0.04,0.01,0.088,0.029,0.125  c0.025,0.048,0.053,0.069,0.065,0.126c0.018,0.083,0.025,0.16,0.024,0.245c-0.001,0.073-0.015,0.132,0,0.205  c0.01,0.049,0.008,0.118,0.042,0.156c0.031,0.034,0.093,0.042,0.134,0.061c0.061,0.029,0.103,0.075,0.114,0.141  c0.014,0.084,0.047,0.149,0.134,0.18c0.054,0.019,0.147-0.015,0.194-0.047c0.057-0.039,0.061-0.156,0.048-0.219  c-0.007-0.033-0.021-0.062-0.005-0.095c0.017-0.037,0.06-0.049,0.093-0.066c0.019-0.01,0.031-0.021,0.052-0.03  c0.025-0.011,0.051-0.001,0.076-0.018c0.032-0.02,0.054-0.07,0.07-0.103c0.033-0.066,0.063-0.141,0.065-0.215  c0.002-0.089-0.031-0.217-0.063-0.299c-0.025-0.065-0.053-0.133-0.088-0.194c-0.047-0.084-0.078-0.143-0.16-0.197  c-0.033-0.022-0.064-0.047-0.1-0.063c-0.03-0.013-0.056-0.013-0.074-0.045c-0.034-0.059-0.015-0.158-0.008-0.222  c0.01-0.082,0.039-0.158,0.063-0.237c0.038-0.126,0.057-0.261,0.127-0.373c0.024-0.039,0.026-0.071,0.042-0.113  c0.016-0.041,0.044-0.083,0.064-0.122c0.044-0.086,0.107-0.164,0.146-0.252l-0.004-0.021c0.055-0.093,0.111-0.179,0.191-0.255  c0.05-0.048,0.166-0.068,0.235-0.069c0.039,0,0.067,0.014,0.107-0.003c0.027-0.011,0.054-0.031,0.079-0.046  c0.081-0.049,0.148-0.129,0.214-0.196c0.04-0.041,0.054-0.079,0.07-0.133c0.013-0.045,0.033-0.146,0.077-0.168  c0.071-0.036,0.08,0.122,0.087,0.166c0.011,0.069-0.003,0.149-0.002,0.221c0,0.075-0.006,0.184-0.045,0.249  c-0.053,0.089-0.162,0.077-0.244,0.129c-0.054,0.035-0.172,0.082-0.173,0.155c-0.001,0.061,0.04,0.137,0.081,0.18  c0.046,0.048,0.161,0.137,0.037,0.175c-0.085,0.026-0.182,0.01-0.249,0.078c-0.06,0.062-0.068,0.171-0.059,0.254  c0.016,0.144,0.077,0.279,0.061,0.425c-0.005,0.043-0.011,0.074-0.042,0.104c-0.034,0.034-0.051,0.033-0.051,0.082  c0,0.069,0.047,0.154,0.117,0.147c0.074-0.008,0.113-0.073,0.18-0.083c0.044-0.007,0.056,0.024,0.096,0.035  c0.049,0.014,0.102-0.016,0.145-0.042c0.051-0.031,0.16-0.104,0.174-0.16c0.013-0.054-0.004-0.148,0.054-0.184  c0.074-0.045,0.078,0.132,0.087,0.177c0.013,0.071,0.04,0.179,0.118,0.205c0.067,0.023,0.112-0.037,0.152-0.083  c0.055-0.063,0.11-0.156,0.146-0.233c0.017-0.035,0.053-0.082,0.059-0.119s-0.014-0.085-0.021-0.12  c-0.014-0.069-0.028-0.138-0.041-0.208c-0.021-0.107-0.081-0.256-0.041-0.357c0.031-0.078,0.084-0.112,0.153-0.156  c0.068-0.043,0.093-0.102,0.128-0.172c0.05-0.101,0.107-0.171,0.119-0.285c0.009-0.09,0.021-0.167-0.016-0.253  c-0.015-0.035-0.055-0.066-0.057-0.104c-0.001-0.026,0.022-0.069,0.032-0.093c0.028-0.066,0.062-0.122,0.095-0.184  c0.031-0.057,0.086-0.138,0.098-0.202c0.01-0.056-0.032-0.114-0.029-0.171c0.003-0.076,0.081-0.07,0.132-0.095  c0.053-0.026,0.101-0.072,0.157-0.092l0.021-0.113c0.019-0.029,0.017-0.114,0.015-0.15c-0.004-0.06-0.012-0.118-0.015-0.179  c-0.005-0.112,0.034-0.241,0.072-0.345c0.069-0.193,0.271-0.469,0.12-0.674c-0.037-0.05-0.099-0.072-0.146-0.111  c-0.043-0.036-0.043-0.058-0.053-0.111c-0.016-0.082,0-0.154,0.012-0.237c0.012-0.078,0.056-0.171,0.023-0.251  c-0.029-0.071-0.078-0.105-0.14-0.146c-0.088-0.059-0.046-0.14-0.086-0.224c-0.03-0.062-0.145-0.012-0.2-0.002  c-0.194,0.036-0.332,0.204-0.481,0.319c-0.073,0.056-0.122,0.12-0.186,0.185c-0.093,0.095-0.213,0.152-0.321,0.224  c-0.075,0.051-0.157,0.085-0.238,0.126c-0.025,0.013-0.079,0.056-0.103,0.032c-0.017-0.017,0.004-0.094,0.012-0.113  c0.041-0.09,0.116-0.162,0.182-0.232c0.023-0.025,0.077-0.071,0.085-0.104c0.009-0.036-0.016-0.062-0.032-0.091  c-0.019-0.036-0.029-0.083-0.061-0.11c-0.026-0.021-0.069-0.025-0.1-0.042c-0.052-0.03-0.081-0.072-0.122-0.115  c-0.024-0.025-0.054-0.043-0.054-0.081l-0.004-0.021c-0.021-0.103-0.035-0.195-0.028-0.3c0.006-0.079,0.01-0.185,0.038-0.259  c0.018-0.046,0.044-0.098,0.069-0.141c0.029-0.051,0.049-0.049,0.103-0.01c0.087,0.063,0.083,0.167,0.072,0.262  c-0.024,0.215-0.023,0.429,0.218,0.507c0.087,0.028,0.164,0.111,0.258,0.118c0.028,0.002,0.08-0.006,0.105-0.016  c0.055-0.021,0.041-0.064,0.061-0.112c0.069-0.168,0.074-0.339,0.037-0.516c-0.021-0.1-0.011-0.178,0.071-0.249  c0.036-0.031,0.073-0.049,0.097-0.092c0.02-0.036,0.036-0.08,0.047-0.12c0.05-0.188-0.015-0.352-0.044-0.537  c-0.013-0.084,0.054-0.145,0.044-0.226c-0.003-0.025-0.007-0.085-0.019-0.107c-0.015-0.028-0.052-0.035-0.078-0.049  c-0.041-0.022-0.095-0.045-0.127-0.078c-0.035-0.036-0.024-0.064-0.04-0.108c-0.025-0.069-0.105-0.079-0.163-0.108  c-0.067-0.034-0.124-0.13-0.156-0.198c-0.02-0.043-0.051-0.15-0.041-0.195c0.016-0.074,0.142-0.065,0.197-0.042  c0.064,0.027,0.109,0.096,0.158,0.143c0.057,0.056,0.106,0.131,0.154,0.196c0.051,0.07,0.106,0.113,0.171,0.169  c0.045,0.039,0.059,0.053,0.117,0.065c0.032,0.006,0.063,0.018,0.095,0.017c0.051-0.001,0.132-0.016,0.178-0.036  c0.069-0.03,0.14-0.063,0.135-0.15c-0.003-0.067-0.025-0.161-0.06-0.218c-0.04-0.064-0.088-0.106-0.109-0.183  c-0.019-0.069-0.028-0.118,0.02-0.177c0.037-0.045,0.108-0.095,0.165-0.108c0.049-0.012,0.16-0.016,0.184,0.033  c0.025,0.051-0.038,0.087-0.063,0.117c-0.027,0.033-0.04,0.058-0.03,0.102c0.023,0.096,0.078,0.086,0.155,0.07  c0.071-0.015,0.136-0.004,0.206-0.019c0.057-0.013,0.137-0.017,0.192,0.004c0.065,0.024,0.127,0.131,0.192,0.116  c0.069-0.016,0.075-0.102,0.068-0.157c-0.009-0.073-0.024-0.163-0.046-0.234c-0.023-0.072-0.098-0.106-0.103-0.181l-0.004-0.021  c-0.008-0.042-0.023-0.084-0.021-0.127c0.002-0.039,0.016-0.08,0.022-0.119c0.013-0.081,0.011-0.161,0.032-0.241  c0.024-0.091,0.116-0.188,0.094-0.284c-0.015-0.067-0.085-0.165-0.131-0.212c-0.049-0.05-0.1-0.087-0.145-0.144  c-0.046-0.059-0.087-0.122-0.119-0.189c-0.062-0.13-0.093-0.259-0.118-0.401c-0.011-0.064-0.001-0.124-0.015-0.187  c-0.016-0.073-0.029-0.137-0.015-0.212c0.023-0.117,0.033-0.189-0.017-0.303c-0.027-0.063-0.075-0.133-0.145-0.153  c-0.049-0.014-0.105-0.004-0.156-0.009c-0.114-0.012-0.145-0.103-0.185-0.197c-0.035-0.08-0.098-0.297-0.223-0.221  c-0.105,0.064-0.088,0.193-0.048,0.288c0.049,0.116,0.123,0.202,0.148,0.325c0.027,0.138-0.005,0.255-0.005,0.392  c0,0.066,0.02,0.139,0.036,0.204c0.012,0.052,0.04,0.092,0.051,0.143c0.027,0.118,0.06,0.246,0.073,0.366  c0.005,0.04,0.015,0.175-0.026,0.2c-0.034,0.021-0.118-0.018-0.157-0.016c-0.058,0.003-0.082,0.02-0.097-0.045  c-0.013-0.056-0.022-0.112-0.033-0.168c-0.022-0.112-0.026-0.228-0.16-0.259c-0.076-0.018-0.065,0.032-0.092,0.092  c-0.026,0.06-0.062,0.125-0.1,0.178c-0.038,0.052-0.081,0.096-0.118,0.149c-0.037,0.052-0.085,0.076-0.13,0.118  c-0.082,0.077-0.146,0.111-0.256,0.133l-0.017,0.025c-0.085,0.128-0.166,0.253-0.239,0.388c-0.073,0.135-0.153,0.257-0.251,0.375  c-0.046,0.055-0.076,0.119-0.113,0.18c-0.042,0.07-0.104,0.129-0.141,0.2c-0.072,0.139-0.163,0.255-0.2,0.41  c-0.029,0.121-0.018,0.249-0.043,0.367c-0.025,0.123-0.005,0.259-0.059,0.378c-0.026,0.056-0.09,0.117-0.142,0.149  c-0.064,0.039-0.119,0.029-0.166,0.096c-0.071,0.101-0.105,0.279-0.239,0.306l-0.021,0.004c-0.017-0.078-0.143-0.052-0.187-0.015  c-0.031,0.026-0.034,0.056-0.075,0.022c-0.031-0.025-0.046-0.083-0.066-0.117c-0.035-0.058-0.042-0.121-0.119-0.107  c-0.07,0.013-0.124,0.063-0.173,0.113c-0.056,0.057-0.109,0.118-0.15,0.187c-0.037,0.062-0.071,0.106-0.143,0.121  c-0.075,0.016-0.151,0.028-0.226,0.044c-0.068,0.015-0.104,0.061-0.144,0.118c-0.052,0.075-0.095,0.147-0.17,0.202  c-0.058,0.042-0.119,0.077-0.179,0.116c-0.061,0.04-0.088,0.115-0.135,0.17c-0.043,0.05-0.068,0.121-0.128,0.153  c-0.063,0.033-0.114,0.048-0.165,0.102c-0.039,0.042-0.081,0.085-0.115,0.131c-0.097,0.134-0.242,0.24-0.317,0.387  c-0.065,0.127-0.103,0.258-0.139,0.395c-0.021,0.081-0.059,0.156-0.103,0.226c-0.019,0.03-0.03,0.066-0.052,0.093  c-0.017,0.021-0.04,0.031-0.054,0.058l-0.017,0.025c-0.06,0.098-0.191,0.126-0.248,0.224c-0.029,0.049-0.056,0.083-0.051,0.141  c0.005,0.059,0.017,0.069-0.018,0.119c-0.059,0.083-0.165,0.133-0.196,0.23c-0.033,0.102-0.077,0.201-0.113,0.301  c-0.02,0.055-0.045,0.102-0.078,0.15c-0.049,0.07-0.075,0.138-0.112,0.215c-0.042,0.089-0.078,0.178-0.098,0.275  c-0.025,0.122-0.033,0.379,0.132,0.398c0.071,0.008,0.132-0.002,0.201-0.017c0.088-0.018,0.155-0.003,0.245,0.017  c0.089,0.02,0.17,0.071,0.262,0.093c0.05,0.012,0.066,0.021,0.109-0.007c0.027-0.018,0.047-0.031,0.076-0.045  c0.094-0.044,0.184-0.14,0.266-0.204c0.07-0.054,0.138-0.097,0.211-0.146c0.129-0.087,0.269-0.175,0.408-0.244  c0.084-0.042,0.161-0.102,0.229-0.165c0.056-0.051,0.1-0.134,0.176-0.152c0.068-0.016,0.137-0.026,0.205-0.04  c0.069-0.014,0.156-0.047,0.227-0.043c0.025,0.072-0.089,0.247-0.136,0.298c-0.085,0.093-0.169,0.167-0.282,0.226  c-0.056,0.029-0.114,0.051-0.172,0.074c-0.049,0.02-0.094,0.056-0.144,0.071c-0.091,0.027-0.175,0.065-0.264,0.096  c-0.09,0.032-0.178,0.06-0.258,0.116c-0.091,0.063-0.139,0.144-0.2,0.235c-0.108,0.161-0.242,0.299-0.443,0.33  c-0.185,0.029-0.376-0.091-0.545-0.155c-0.079-0.03-0.135-0.038-0.216-0.021c-0.088,0.018-0.175,0.035-0.263,0.052  c-0.101,0.02-0.146,0.032-0.226-0.037c-0.043-0.037-0.052-0.045-0.064-0.101c-0.009-0.042-0.016-0.084-0.025-0.126  c-0.014-0.068-0.009-0.126-0.017-0.193c-0.009-0.071,0.007-0.154,0.026-0.223c0.043-0.153,0.092-0.313,0.117-0.471  c0.013-0.081,0.024-0.163,0.041-0.243c0.016-0.074,0.064-0.165,0.039-0.242l-0.004-0.021c0.046-0.011,0.064-0.057,0.096-0.085  c0.035-0.03,0.076-0.053,0.111-0.082c0.058-0.047,0.102-0.081,0.145-0.143c0.031-0.046,0.064-0.07,0.107-0.104  c0.033-0.027,0.048-0.055,0.077-0.086c0.042-0.044,0.09-0.069,0.127-0.117c0.025-0.033,0.056-0.075,0.076-0.111  c0.083-0.145,0.142-0.302,0.227-0.446c0.026-0.044,0.037-0.094,0.059-0.139c0.027-0.053,0.064-0.101,0.097-0.15  c0.052-0.078,0.098-0.166,0.153-0.241c0.099-0.134,0.231-0.239,0.343-0.36c0.147-0.16,0.234-0.369,0.354-0.551  c0.08-0.122,0.204-0.207,0.304-0.311c0.064-0.066,0.132-0.112,0.206-0.165c0.04-0.028,0.081-0.063,0.118-0.095  c0.043-0.038,0.052-0.072,0.08-0.121l-0.004-0.021c-0.017-0.043,0-0.067,0.001-0.108c0.001-0.028-0.017-0.056-0.019-0.084  c-0.004-0.049-0.003-0.099-0.007-0.148c-0.003-0.041-0.009-0.048,0.02-0.085c0.029-0.038,0.07-0.056,0.097-0.099  c0.018-0.029,0.042-0.062,0.053-0.094c0.026-0.07,0.053-0.141,0.077-0.212c0.042-0.126,0.04-0.255,0.077-0.38  c0.031-0.105,0.108-0.113,0.191-0.172c0.06-0.043,0.1-0.14,0.104-0.213c0.008-0.151-0.031-0.298-0.063-0.446  c-0.037-0.178-0.03-0.41,0.066-0.571c0.032-0.055,0.113-0.168,0.178-0.184c0.064-0.015,0.097,0.019,0.082,0.077  c-0.021,0.079-0.057,0.132-0.047,0.219c0.006,0.052,0.013,0.141,0.086,0.093c0.103-0.068,0.112-0.313,0.118-0.414  c0.007-0.115,0.034-0.211,0.069-0.319c0.017-0.054,0.106-0.345,0.184-0.258c0.02,0.023,0.027,0.135,0.027,0.167  c0,0.053-0.012,0.106-0.007,0.16c0.012,0.133,0.064,0.249,0.112,0.37c0.044,0.11,0.07,0.215,0.093,0.331  c0.021,0.104,0.051,0.197,0.017,0.302c-0.022,0.068-0.047,0.136-0.068,0.204c-0.02,0.066-0.067,0.114-0.092,0.176  c-0.017,0.044-0.022,0.091-0.043,0.136c-0.015,0.032-0.036,0.062-0.047,0.096c-0.01,0.03-0.012,0.062-0.023,0.092  c-0.013,0.036-0.035,0.063-0.047,0.101c-0.019,0.065-0.042,0.129-0.071,0.19c-0.025,0.054-0.065,0.122-0.07,0.184  c-0.01,0.124,0.054,0.251,0.149,0.325c0.054,0.042,0.094,0.06,0.159,0.028c0.052-0.026,0.101-0.055,0.13-0.108l0.017-0.025  c0.021-0.029,0.019-0.07,0.033-0.102c0.013-0.03,0.028-0.055,0.039-0.087c0.021-0.065,0.041-0.125,0.066-0.188  c0.025-0.062,0.042-0.127,0.059-0.191c0.022-0.083,0.053-0.161,0.076-0.244c0.048-0.172,0.094-0.345,0.143-0.516  c0.036-0.124,0.085-0.236,0.141-0.352c0.046-0.094,0.079-0.194,0.124-0.289c0.062-0.129,0.119-0.213,0.231-0.3  c0.055-0.043,0.105-0.043,0.167-0.068c0.06-0.024,0.083-0.05,0.115-0.106c0.088-0.155,0.086-0.366,0.085-0.543  c0-0.112,0.002-0.207,0.139-0.184c0.026,0.004,0.054,0.003,0.078,0.013c0.028,0.012,0.045,0.036,0.072,0.051  c0.04,0.023,0.086,0.036,0.129,0.016c0.084-0.038,0.114-0.164,0.197-0.209c0.073-0.04,0.194-0.013,0.247-0.096  c0.043-0.068-0.03-0.193-0.053-0.257c-0.017-0.045-0.048-0.08-0.066-0.124c-0.019-0.045-0.034-0.075-0.067-0.111  c-0.054-0.058-0.194-0.249-0.268-0.135c-0.025,0.039-0.049,0.089-0.073,0.13c-0.026,0.044-0.005,0.084-0.026,0.127  c-0.018,0.037-0.079,0.083-0.122,0.064c-0.033-0.014-0.036-0.067-0.04-0.098c-0.005-0.035,0.004-0.06,0.01-0.094  c0.009-0.052-0.002-0.095-0.013-0.146c-0.01-0.046-0.017-0.091-0.066-0.113c-0.043-0.02-0.078-0.008-0.115-0.045  c-0.037-0.038-0.014-0.052,0-0.093c0.02-0.058,0.025-0.086,0.06-0.138l0.027-0.09c-0.012-0.074-0.152-0.139-0.201-0.193  c-0.056-0.06-0.099-0.129-0.155-0.189c-0.05-0.054-0.192-0.118-0.207-0.192c-0.012-0.06,0.062-0.155,0.109-0.181  c0.06-0.034,0.147-0.021,0.213-0.041c0.112-0.035,0.165-0.113,0.211-0.213c0.042-0.092,0.095-0.221,0.09-0.322  c-0.003-0.072-0.033-0.152-0.048-0.224c-0.019-0.095-0.031-0.408-0.199-0.303c-0.112,0.069,0.012,0.283-0.093,0.343  c-0.161,0.092-0.242-0.33-0.411-0.14c-0.121,0.136,0.111,0.27,0.191,0.343c0.135,0.124,0.049,0.318-0.14,0.228  c-0.068-0.033-0.133-0.104-0.174-0.166c-0.043-0.065-0.119-0.136-0.153-0.202c-0.052-0.103-0.088-0.309-0.068-0.417  c0.039-0.215,0.196-0.366,0.273-0.561c0.051-0.128-0.043-0.284-0.17-0.329c-0.145-0.051-0.239,0.035-0.369,0.078  c-0.067,0.022-0.145,0.023-0.214,0.04c-0.063,0.016-0.092,0.038-0.15,0.066c-0.159,0.078-0.218,0.162-0.317,0.309  c-0.11,0.164-0.19,0.26-0.152,0.458c0.022,0.115,0.033,0.126,0.118,0.192c0.08,0.061,0.14,0.147,0.215,0.214  c0.075,0.066,0.14,0.096,0.133,0.203c-0.004,0.079-0.045,0.149-0.08,0.219c-0.041,0.081-0.087,0.1-0.149,0.157  c-0.057,0.052-0.085,0.133-0.17,0.144c-0.029-0.119-0.085-0.222-0.112-0.346c-0.028-0.125-0.096-0.255-0.165-0.361  c-0.074-0.114-0.115-0.25-0.251-0.316c-0.075-0.036-0.145-0.023-0.219-0.071c-0.061-0.04-0.127-0.108-0.158-0.174  c-0.03-0.066-0.013-0.093-0.065-0.156c-0.05-0.06-0.107-0.118-0.187-0.118c-0.127,0.001-0.221,0.079-0.234,0.213  c-0.01,0.11,0.042,0.248,0.065,0.356c0.039,0.186-0.002,0.235-0.188,0.27l-0.039,0.008c-0.069-0.035-0.115-0.18-0.131-0.247  c-0.021-0.092-0.036-0.187-0.055-0.28c-0.026-0.138-0.091-0.249-0.146-0.373c-0.044-0.099-0.07-0.203-0.107-0.302  c-0.081-0.215-0.231-0.505-0.431-0.618c-0.068-0.038-0.135-0.091-0.209-0.114c-0.072-0.022-0.163-0.015-0.237-0.02  c-0.095-0.007-0.299,0.041-0.338-0.053c-0.038-0.091,0.079-0.217,0.151-0.266c0.122-0.082,0.253-0.003,0.38-0.005  c0.123-0.002,0.274-0.066,0.268-0.212c-0.006-0.143-0.122-0.18-0.237-0.154c-0.088,0.02-0.187,0.023-0.269,0.062  c-0.105,0.051-0.223,0.074-0.327,0.136c-0.095,0.057-0.168,0.161-0.252,0.241c-0.105,0.101-0.164,0.198-0.25,0.313  c-0.174,0.233-0.482,0.246-0.747,0.299l-0.039,0.008c-0.066,0.023-0.105,0.002-0.17,0.002c-0.089-0.001-0.111,0.03-0.177,0.078  c-0.082,0.061-0.195,0.075-0.296,0.089c-0.113,0.016-0.247,0.003-0.365,0.001c-0.131-0.002-0.242-0.065-0.368-0.098  c-0.132-0.034-0.283-0.011-0.401-0.08c-0.119-0.069-0.213-0.184-0.332-0.259c-0.118-0.075-0.195-0.041-0.325-0.015  c-0.147,0.03-0.279,0.039-0.424-0.018c-0.074-0.029-0.107-0.104-0.171-0.147c-0.061-0.041-0.161-0.089-0.228-0.117  c-0.118-0.048-0.232-0.008-0.353-0.005c-0.067,0.002-0.112-0.018-0.181-0.007c-0.049,0.007-0.098,0.021-0.147,0.03  c-0.151,0.027-0.221-0.047-0.345-0.13c-0.254-0.171-0.526-0.234-0.824-0.281c-0.162-0.026-0.3-0.085-0.463-0.099  c-0.162-0.014-0.284-0.032-0.444-0.002c-0.099,0.038-0.192-0.011-0.292-0.013c-0.12-0.003-0.221,0.03-0.342,0.019  c-0.224-0.02-0.448,0.014-0.671-0.037c-0.406-0.092-0.814-0.219-1.144-0.486c-0.146-0.118-0.305-0.165-0.479-0.228  c-0.068-0.024-0.132-0.058-0.2-0.079c-0.045-0.014-0.111-0.014-0.151-0.041c-0.072-0.048-0.159-0.165-0.197-0.245  c-0.046-0.095-0.097-0.176-0.165-0.26c-0.143-0.176-0.365-0.201-0.541-0.315c-0.096-0.062-0.201-0.097-0.296-0.163  c-0.051-0.035-0.086-0.065-0.146-0.083c-0.064-0.019-0.114-0.001-0.164-0.057c-0.106-0.078-0.199-0.166-0.332-0.208  c-0.05-0.016-0.107-0.008-0.158-0.026c-0.045-0.016-0.083-0.046-0.131-0.058c-0.055-0.014-0.098,0.003-0.153-0.006  c-0.054-0.009-0.117-0.038-0.172-0.049c-0.101-0.021-0.202-0.039-0.304-0.059c-0.126-0.025-0.215-0.034-0.322-0.107  c-0.124-0.084-0.239-0.177-0.364-0.26c-0.13-0.086-0.271-0.169-0.395-0.261c-0.076-0.056-0.107-0.135-0.168-0.203  c-0.056-0.063-0.132-0.097-0.195-0.15c-0.116-0.098-0.179-0.227-0.304-0.315c-0.052-0.037-0.108-0.079-0.165-0.107  c-0.055-0.027-0.116-0.024-0.169-0.049c-0.206-0.097-0.378-0.273-0.577-0.385c-0.107-0.06-0.226-0.097-0.322-0.178  c-0.084-0.071-0.134-0.184-0.242-0.226c-0.083-0.032-0.243-0.031-0.335-0.041c-0.144-0.015-0.264-0.05-0.405-0.02L5.589,31.14  c0.018,0.095,0.059,0.153,0.132,0.216c0.086,0.074,0.136,0.088,0.165,0.21c0.019,0.08-0.013,0.157,0.03,0.223  c0.051,0.079,0.149,0.121,0.18,0.212c0.071,0.214-0.104,0.371-0.198,0.546c-0.044,0.082-0.05,0.14-0.043,0.227  c0.008,0.108-0.009,0.211-0.029,0.316c-0.021,0.111-0.049,0.215-0.087,0.32c-0.03,0.084-0.046,0.176-0.077,0.259  c-0.039,0.103-0.088,0.172-0.052,0.281c0.033,0.101,0.092,0.182,0.134,0.278c0.083,0.189-0.026,0.388-0.134,0.547  c-0.08,0.117-0.141,0.23-0.229,0.342C5.316,35.2,5.25,35.279,5.19,35.366c0.031,0.154,0.061,0.301,0.122,0.445  c0.057,0.136,0.116,0.271,0.177,0.409c0.073,0.166,0.093,0.353,0.129,0.532c0.027,0.134,0.062,0.255,0.04,0.391  c-0.013,0.083-0.047,0.154-0.067,0.233c-0.02,0.08-0.066,0.146-0.084,0.227c-0.035,0.16-0.055,0.399,0.046,0.537  c0.103,0.141,0.136,0.313,0.165,0.483c0.023,0.138-0.048,0.293-0.006,0.424l0.006,0.029c0.01,0.049,0.01,0.133,0.039,0.175  c0.042,0.061,0.16,0.043,0.223,0.075c0.189,0.095,0.184,0.311,0.22,0.496c0.031,0.159,0.08,0.327,0.188,0.454  C6.44,40.338,6.489,40.4,6.54,40.464c0.064,0.082,0.128,0.124,0.205,0.194c0.078,0.071,0.152,0.136,0.251,0.179  c0.089,0.039,0.184,0.024,0.276,0.048c0.1,0.027,0.161,0.123,0.184,0.22c0.021,0.09,0.045,0.161,0.08,0.246  c0.033,0.077,0.095,0.174,0.152,0.239c0.038,0.044,0.093,0.055,0.134,0.095c0.027,0.027,0.046,0.06,0.065,0.093  c0.038,0.064,0.075,0.126,0.117,0.188c0.04,0.06,0.116,0.16,0.122,0.234l0.006,0.029c0.043,0.216,0.086,0.432,0.129,0.649  c0.015,0.075,0.031,0.149,0.045,0.224c0.018,0.095,0.065,0.168,0.104,0.252c0.039,0.083,0.074,0.141,0.133,0.214  c0.076,0.094,0.083,0.229,0.106,0.344c0.022,0.11,0.041,0.217,0.036,0.327c-0.004,0.082,0.003,0.161-0.006,0.242  c-0.004,0.043-0.015,0.087-0.014,0.13c0.001,0.039,0.019,0.071,0.017,0.112c-0.005,0.084,0.017,0.159,0.018,0.244  c0.002,0.175,0.046,0.347,0.08,0.521c0.02,0.099,0.027,0.182,0.089,0.263c0.054,0.07,0.116,0.141,0.183,0.199  c0.078,0.067,0.164,0.085,0.194,0.197c0.034,0.127-0.12,0.124-0.17,0.222l-0.041,0.099c0.006,0.051-0.028,0.108-0.037,0.158  c-0.011,0.062-0.021,0.127-0.027,0.189c-0.008,0.088,0.025,0.163,0.03,0.249C9.003,47.112,8.992,47.152,9,47.202  c0.009,0.056,0.023,0.113,0.034,0.169c0.018,0.086,0.018,0.166,0.021,0.251c0.003,0.103,0.001,0.225-0.026,0.325  c-0.028,0.1-0.083,0.181-0.066,0.284c0.026,0.158,0.088,0.289,0.12,0.445c0.017,0.083,0.043,0.171,0.044,0.255  c0.002,0.1-0.01,0.18,0.057,0.263c0.068,0.085,0.169,0.089,0.24,0.164c0.09,0.094,0.053,0.154-0.007,0.244  c-0.078,0.118-0.061,0.376,0.035,0.485c0.069,0.079,0.182,0.1,0.27,0.158c0.075,0.049,0.173,0.168,0.179,0.26  c0.017,0.101,0.065,0.185,0.087,0.287c0.019,0.091,0.065,0.166,0.083,0.26c0.036,0.19,0.075,0.379,0.113,0.568  c0.045,0.226,0.118,0.461,0.115,0.69c-0.003,0.191,0.019,0.376,0.011,0.565c-0.009,0.214-0.061,0.433-0.018,0.645  c0.021,0.106,0.01,0.212,0.032,0.319c0.018,0.088,0.029,0.153,0.024,0.239c-0.005,0.087,0.044,0.17,0.046,0.256  c0.001,0.075-0.008,0.152-0.01,0.227c-0.003,0.109,0.012,0.222,0.03,0.33c0.019,0.116,0.016,0.23,0.038,0.347l0.006,0.029  c0.019,0.053-0.004,0.112,0.002,0.167c0.007,0.063,0.024,0.111,0.021,0.176c-0.002,0.057,0.012,0.108,0.011,0.164  c-0.001,0.059-0.017,0.117,0.014,0.176c0.091,0.009,0.14-0.056,0.214-0.093c0.059-0.029,0.125-0.065,0.158-0.128  c0.042-0.079,0.015-0.145-0.036-0.206c-0.019-0.022-0.027-0.022-0.042-0.05c-0.005-0.028-0.011-0.056-0.018-0.084  c0-0.03,0.015-0.047,0.046-0.052c0.117-0.139,0.031-0.279,0.009-0.447c-0.015-0.112,0.007-0.463,0.183-0.311  c0.071,0.062,0.095,0.091,0.196,0.046c0.083-0.038,0.162-0.099,0.228-0.16c0.075-0.069,0.289-0.391,0.369-0.165  c0.045,0.128,0.032,0.28,0.077,0.408c0.025,0.071,0.084,0.117,0.102,0.192c0.017,0.069,0.027,0.141,0.041,0.21  c0.018,0.088,0.023,0.152,0.01,0.242c-0.009,0.061-0.045,0.143-0.009,0.199c0.036,0.057,0.15,0.077,0.21,0.098  c0.078,0.028,0.128,0.023,0.207,0.007c0.063-0.013,0.127-0.028,0.191-0.039c0.096-0.016,0.122,0.032,0.192,0.095  c0.057,0.051,0.125,0.142,0.204,0.155c0.07,0.012,0.181-0.031,0.251-0.045c0.085-0.017,0.109-0.017,0.188,0.015  c0.079,0.031,0.171,0.065,0.256,0.071c0.101,0.008,0.213,0.016,0.314,0.006c0.047-0.004,0.092-0.024,0.138-0.03  c0.083-0.011,0.098,0.012,0.163,0.061c0.042,0.031,0.139,0.065,0.149,0.121c0.016,0.091-0.14,0.093-0.197,0.097  c-0.103,0.007-0.196,0.002-0.298,0.03c-0.098,0.028-0.182,0.099-0.275,0.14c-0.182,0.081-0.363,0.195-0.556,0.239  c-0.097,0.022-0.195,0.038-0.293,0.058c-0.083,0.017-0.175,0.014-0.234,0.081c-0.034,0.039-0.047,0.093-0.086,0.128  c-0.048,0.044-0.117,0.057-0.178,0.072c-0.021,0.005-0.06,0.018-0.079,0.017c-0.067-0.003-0.114-0.044-0.187-0.03  c-0.096,0.019-0.213,0.147-0.284,0.212c-0.046,0.043-0.081,0.079-0.137,0.111c-0.059,0.034-0.112,0.061-0.149,0.123  c0.086,0.002,0.148-0.041,0.234-0.006c0.081,0.033,0.214,0.13,0.199,0.219c-0.008,0.048-0.063,0.079-0.065,0.135  c-0.002,0.055,0.031,0.07,0.049,0.118c0.047,0.125-0.093,0.141-0.182,0.157c-0.072,0.013-0.192,0.066-0.26,0.056  c-0.105-0.015-0.07-0.158-0.105-0.227c-0.075-0.15-0.481,0.015-0.437-0.252c0.017-0.1,0.04-0.191-0.01-0.288  c-0.04-0.078-0.119-0.098-0.117-0.195c0.002-0.118,0.023-0.198-0.131-0.21c-0.158-0.013-0.21,0.112-0.202,0.255  c0.003,0.049,0.029,0.097,0.033,0.146c0.003,0.047-0.01,0.09-0.006,0.137c0.008,0.106,0.045,0.207,0.085,0.301  c0.069,0.161,0.081,0.373,0.115,0.545L10.742,58.39z"/><text x="0" y="115" fill="#000000" font-size="5px" font-weight="bold" font-family="'Helvetica Neue', Helvetica, Arial-Unicode, Arial, Sans-serif">Created by Bence Bezeredy</text><text x="0" y="120" fill="#000000" font-size="5px" font-weight="bold" font-family="'Helvetica Neue', Helvetica, Arial-Unicode, Arial, Sans-serif">from the Noun Project</text></svg>